{"glyphs":{"0":{"ha":960,"x_min":10,"x_max":949,"o":"m 943 496 q 913 278 949 375 q 813 120 878 181 q 662 28 747 60 q 478 -4 576 -4 q 144 139 278 -4 q 13 496 10 282 q 44 677 14 593 q 124 818 75 761 q 233 915 172 875 q 357 975 294 956 q 478 994 419 994 q 807 863 681 996 q 943 496 933 731 m 482 272 q 556 328 521 272 q 592 486 592 385 q 559 620 592 567 q 482 682 526 674 q 424 661 451 686 q 378 588 396 636 q 361 486 361 540 q 378 381 361 431 q 422 301 394 331 q 482 272 450 272 z "},"1":{"ha":794,"x_min":4,"x_max":736,"o":"m 647 301 q 715 218 696 288 q 715 87 735 149 q 647 32 696 25 q 493 40 588 39 q 341 38 399 40 q 158 28 283 35 q 90 42 118 25 q 48 85 61 58 q 31 145 35 113 q 34 208 28 178 q 54 260 40 238 q 85 289 68 282 q 153 299 114 299 q 216 300 193 299 q 242 317 239 301 q 249 474 251 376 q 235 640 247 572 q 229 648 235 647 q 213 646 224 649 q 191 638 203 643 q 160 631 179 633 q 124 631 142 629 q 35 680 64 638 q 13 774 6 722 q 60 865 21 826 q 190 924 93 901 q 385 936 286 946 q 517 876 485 926 q 553 712 550 826 q 548 472 557 597 q 543 310 539 346 q 557 300 544 299 q 592 306 569 301 q 647 301 615 310 z "},"2":{"ha":825,"x_min":15,"x_max":810,"o":"m 575 350 q 742 318 665 394 q 807 169 806 256 q 728 47 810 75 q 710 42 718 44 q 497 17 614 21 q 317 17 381 13 q 213 26 253 21 q 95 92 142 38 q 38 233 49 147 q 74 404 25 322 q 242 538 122 486 q 303 560 263 547 q 371 583 343 574 q 422 607 399 592 q 449 638 446 622 q 447 674 451 663 q 426 692 442 686 q 376 700 410 699 q 309 685 343 701 q 261 636 275 668 q 224 608 251 617 q 161 606 196 600 q 94 627 126 611 q 39 675 61 643 q 17 747 17 707 q 85 894 17 835 q 256 976 154 954 q 469 982 358 997 q 703 876 618 963 q 788 678 788 789 q 779 581 788 621 q 745 504 771 542 q 669 438 719 467 q 542 383 619 408 q 501 372 528 379 q 458 360 474 365 q 425 349 442 356 q 402 334 408 342 q 401 318 396 326 q 575 350 426 278 z "},"3":{"ha":881,"x_min":60,"x_max":865,"o":"m 465 1004 q 592 992 533 1004 q 701 955 651 981 q 786 886 751 929 q 835 783 821 843 q 841 675 851 724 q 813 599 831 626 q 777 547 796 571 q 757 514 758 524 q 772 490 757 506 q 806 458 786 475 q 842 409 825 442 q 860 338 858 376 q 838 195 864 260 q 763 90 811 131 q 652 27 714 50 q 522 0 590 4 q 283 18 389 -8 q 119 106 178 44 q 71 256 60 168 q 112 337 78 304 q 192 378 146 369 q 283 383 238 388 q 360 356 328 379 q 396 296 393 332 q 422 258 399 267 q 473 265 444 250 q 518 310 501 279 q 526 381 550 364 q 488 391 511 392 q 434 388 465 390 q 340 400 403 385 q 278 460 294 413 q 279 556 263 508 q 331 615 296 603 q 442 623 374 632 q 526 625 511 614 q 532 630 529 626 q 538 639 535 633 q 542 651 540 644 q 543 667 543 658 q 540 683 543 675 q 532 698 538 690 q 517 713 526 706 q 494 724 508 719 q 460 733 479 729 q 339 681 386 746 q 260 672 313 660 q 168 740 207 685 q 154 851 129 794 q 272 963 185 921 q 465 1004 358 1004 z "},"4":{"ha":876,"x_min":17,"x_max":847,"o":"m 528 896 q 598 949 546 933 q 705 957 650 965 q 803 909 760 949 q 846 808 846 869 q 835 623 846 776 q 828 388 824 469 q 836 304 831 349 q 844 223 842 260 q 844 133 846 186 q 758 36 842 68 q 594 33 671 3 q 524 158 513 67 q 525 178 525 168 q 523 199 525 188 q 514 213 521 210 q 494 211 507 215 q 405 181 454 192 q 297 171 356 169 q 187 191 238 172 q 97 261 136 210 q 46 392 57 313 q 19 719 17 589 q 46 885 22 849 q 117 935 67 918 q 221 951 168 953 q 318 917 274 949 q 369 829 363 885 q 366 674 376 779 q 357 536 356 568 q 394 473 360 488 q 463 469 428 458 q 508 500 497 481 q 526 587 525 531 q 521 696 528 643 q 514 806 514 749 q 528 896 514 864 z "},"5":{"ha":824,"x_min":6,"x_max":806,"o":"m 558 594 q 665 551 621 575 q 737 503 710 528 q 778 444 764 478 q 799 378 793 411 q 804 299 804 344 q 719 99 804 188 q 485 -6 635 10 q 254 11 364 -17 q 75 104 144 39 q 6 257 6 169 q 17 311 6 286 q 49 353 29 336 q 92 382 68 369 q 140 398 115 394 q 188 401 165 401 q 226 391 210 400 q 250 368 243 382 q 313 305 265 335 q 392 278 361 275 q 455 292 440 281 q 464 340 469 304 q 440 369 463 356 q 391 390 418 382 q 326 410 364 399 q 267 431 289 421 q 219 452 239 443 q 179 471 200 461 q 145 488 158 481 q 118 506 132 496 q 96 524 104 515 q 80 542 88 532 q 69 563 72 553 q 63 585 65 572 q 60 611 60 597 q 63 642 61 625 q 83 736 69 688 q 115 833 96 785 q 165 913 135 881 q 228 950 194 946 q 681 936 460 983 q 788 832 769 917 q 756 690 804 756 q 614 646 700 618 q 590 656 603 650 q 540 672 574 664 q 468 680 507 681 q 418 660 429 679 q 418 644 413 651 q 441 629 424 636 q 474 617 458 622 q 517 606 490 613 q 558 594 543 599 z "},"6":{"ha":826,"x_min":14,"x_max":814,"o":"m 582 600 q 741 529 690 585 q 806 379 792 474 q 810 303 813 344 q 803 221 808 263 q 776 139 797 179 q 723 67 754 99 q 639 13 692 35 q 517 -14 586 -8 q 254 18 360 -25 q 90 163 149 61 q 21 429 32 264 q 19 538 14 481 q 35 651 25 596 q 69 760 44 707 q 126 854 93 813 q 208 926 158 896 q 319 968 258 957 q 594 959 479 1000 q 738 833 708 918 q 742 731 754 774 q 692 668 729 689 q 613 642 656 647 q 528 653 571 638 q 464 700 486 669 q 444 717 454 713 q 418 710 435 721 q 379 668 401 699 q 367 644 372 657 q 358 619 361 632 q 360 597 354 606 q 381 588 365 588 q 423 596 389 589 q 488 605 457 603 q 582 600 518 607 m 433 260 q 489 276 468 258 q 506 328 510 294 q 450 375 500 360 q 378 361 397 390 q 372 329 369 349 q 394 278 378 297 q 433 260 410 260 z "},"7":{"ha":939,"x_min":68,"x_max":871,"o":"m 179 950 q 349 968 260 961 q 549 976 439 975 q 740 955 660 976 q 843 889 821 933 q 868 788 867 840 q 859 696 869 735 q 826 586 849 657 q 793 465 804 515 q 678 108 747 258 q 604 40 657 64 q 497 18 551 17 q 398 45 443 19 q 346 115 353 71 q 351 215 339 157 q 373 303 363 274 q 408 400 383 332 q 467 535 431 458 q 517 649 504 613 q 519 692 531 685 q 444 698 486 703 q 328 685 401 693 q 215 681 254 676 q 131 711 167 685 q 81 774 94 738 q 70 848 68 811 q 101 913 72 885 q 179 950 131 942 z "},"8":{"ha":865,"x_min":14,"x_max":850,"o":"m 728 525 q 742 509 729 518 q 772 485 754 500 q 807 446 789 469 q 837 378 825 422 q 849 276 849 335 q 838 192 849 231 q 810 126 828 154 q 765 76 792 99 q 708 40 738 54 q 641 16 678 26 q 569 1 604 6 q 493 -7 533 -4 q 433 -8 464 -8 q 379 -7 406 -8 q 272 6 322 -4 q 174 38 222 17 q 91 92 125 60 q 35 173 57 124 q 14 286 14 222 q 27 387 14 343 q 60 452 40 431 q 99 488 79 474 q 131 510 118 501 q 144 525 144 518 q 127 544 143 532 q 95 572 111 556 q 69 626 79 589 q 71 721 60 664 q 89 780 76 749 q 130 851 101 811 q 197 921 158 890 q 298 973 235 951 q 436 994 361 994 q 567 976 507 994 q 667 931 628 958 q 734 868 706 903 q 776 804 763 833 q 794 749 790 775 q 800 635 808 678 q 775 575 792 593 q 743 545 758 557 q 728 525 728 533 m 392 717 q 385 697 388 711 q 385 664 383 682 q 398 633 386 646 q 432 618 410 619 q 467 641 457 618 q 475 687 478 664 q 467 717 472 710 q 429 735 451 733 q 392 717 407 736 m 432 263 q 483 281 465 263 q 503 324 501 300 q 501 370 506 349 q 492 397 497 392 q 429 422 467 421 q 365 397 392 424 q 356 370 360 390 q 354 326 353 350 q 376 283 356 301 q 432 263 396 264 z "},"9":{"ha":839,"x_min":8,"x_max":824,"o":"m 321 985 q 678 903 556 1008 q 818 551 800 797 q 817 419 822 485 q 791 284 811 353 q 738 161 771 215 q 648 67 704 107 q 518 11 592 26 q 244 21 358 -19 q 101 146 129 61 q 96 249 83 207 q 145 312 108 290 q 224 338 182 333 q 309 326 267 342 q 375 281 351 311 q 393 264 383 268 q 420 271 403 260 q 458 313 438 282 q 471 335 465 322 q 480 361 476 347 q 478 384 483 375 q 457 392 472 393 q 418 388 447 392 q 347 381 389 383 q 256 379 306 378 q 82 454 153 383 q 10 617 11 525 q 17 707 8 663 q 47 800 25 751 q 102 886 68 849 q 192 951 136 924 q 321 985 249 978 m 333 653 q 388 606 338 621 q 460 619 442 590 q 465 650 468 632 q 444 702 460 683 q 406 721 428 721 q 349 704 369 722 q 333 653 328 686 z "},"\u0000":{"ha":0,"x_min":0,"x_max":0,"o":""},"\n":{"ha":0,"x_min":0,"x_max":0,"o":""},"\r":{"ha":0,"x_min":0,"x_max":0,"o":""}," ":{"ha":501,"x_min":0,"x_max":0,"o":""},"!":{"ha":419,"x_min":17,"x_max":396,"o":"m 357 353 q 274 289 338 304 q 149 293 210 274 q 75 353 89 313 q 48 499 64 385 q 24 723 32 613 q 33 878 17 833 q 81 925 47 906 q 153 953 114 944 q 236 960 193 963 q 315 944 279 957 q 373 906 350 932 q 396 843 396 879 q 383 724 396 796 q 369 615 369 651 q 372 561 371 597 q 373 501 372 525 q 372 448 374 478 q 367 394 371 418 q 357 353 364 371 m 331 19 q 308 0 331 19 q 219 -18 285 -18 q 107 19 153 -18 q 61 108 61 56 q 107 196 61 160 q 219 232 153 232 q 331 196 285 232 q 376 108 376 160 q 331 19 376 56 z "},"\"":{"ha":708,"x_min":8,"x_max":700,"o":"m 179 972 q 285 938 244 972 q 335 851 325 904 q 330 752 344 801 q 288 668 315 703 q 249 640 272 649 q 202 632 225 631 q 158 641 179 633 q 122 661 136 649 q 106 686 108 674 q 125 750 100 710 q 122 761 132 763 q 75 768 100 761 q 29 797 50 775 q 11 851 8 819 q 63 939 17 906 q 179 972 108 972 m 689 851 q 685 752 699 801 q 643 668 671 703 q 592 635 624 643 q 533 634 561 628 q 485 655 506 640 q 460 686 464 669 q 479 750 456 710 q 478 761 486 763 q 430 768 454 761 q 385 797 406 775 q 367 851 364 819 q 417 939 371 906 q 533 972 464 972 q 640 938 600 972 q 689 851 679 904 z "},"#":{"ha":1019,"x_min":-4,"x_max":1019,"o":"m 942 507 q 881 501 925 504 q 861 417 872 460 q 914 401 901 411 q 954 327 944 381 q 945 225 964 274 q 885 168 926 176 q 796 161 864 164 q 778 97 786 126 q 724 10 761 38 q 647 -14 688 -18 q 567 10 606 -10 q 505 63 529 29 q 481 129 481 96 q 483 156 481 139 q 389 157 435 157 q 372 97 381 125 q 247 -21 342 -7 q 111 21 169 -31 q 75 129 57 68 q 86 169 81 147 q 54 175 63 172 q 8 247 18 190 q 22 357 -3 304 q 99 411 46 410 q 143 413 117 413 q 153 458 146 426 q 163 506 160 489 q 110 515 122 510 q 63 586 74 529 q 77 696 53 643 q 154 750 101 749 q 221 753 176 751 q 263 876 246 844 q 328 924 281 911 q 424 927 376 938 q 506 876 472 917 q 531 776 539 836 q 529 763 531 771 q 628 764 582 764 q 668 876 653 847 q 735 924 688 911 q 830 927 782 938 q 911 876 878 917 q 936 776 944 836 q 933 753 935 767 q 969 740 960 749 q 1010 666 1000 719 q 1001 564 1019 613 q 942 507 983 515 m 538 425 q 554 496 544 460 q 474 496 515 496 q 457 424 465 460 q 538 425 500 425 z "},"$":{"ha":900,"x_min":68,"x_max":896,"o":"m 594 583 q 824 463 753 533 q 894 288 894 393 q 829 124 894 201 q 656 8 764 47 q 649 -99 654 -50 q 612 -150 644 -131 q 535 -172 579 -169 q 447 -166 492 -174 q 370 -135 403 -158 q 332 -83 338 -112 q 328 -12 326 -51 q 140 81 211 11 q 69 272 69 150 q 108 356 69 322 q 193 399 146 390 q 285 399 240 408 q 340 365 329 390 q 386 297 360 324 q 456 267 413 271 q 528 277 504 261 q 546 328 551 293 q 498 369 543 349 q 385 413 453 390 q 294 446 318 435 q 178 543 208 489 q 160 679 149 597 q 217 822 171 760 q 329 922 264 883 l 331 922 l 332 922 q 354 1060 332 1011 q 419 1112 369 1096 q 522 1124 469 1128 q 617 1097 575 1119 q 661 1040 658 1075 q 664 1012 663 1029 q 668 973 665 994 q 672 936 671 951 q 717 915 694 928 q 817 778 815 864 q 756 639 819 692 q 628 617 692 586 q 601 633 622 619 q 563 654 579 646 q 528 663 547 663 q 500 649 508 664 q 511 615 488 629 q 594 583 535 601 z "},"%":{"ha":1392,"x_min":68,"x_max":1328,"o":"m 719 914 q 835 962 763 960 q 962 926 907 964 q 1014 828 1017 888 q 882 465 1010 740 q 668 58 754 190 q 492 -25 613 -26 q 333 32 390 -24 q 311 132 288 76 q 423 338 338 193 q 536 542 508 483 q 597 675 553 575 q 670 835 640 775 q 719 914 700 894 m 550 757 q 485 600 554 656 q 310 544 415 544 q 138 605 207 544 q 69 757 68 665 q 111 874 71 824 q 204 947 151 925 q 310 968 257 968 q 479 913 414 969 q 550 757 544 857 m 258 753 q 265 708 258 728 q 283 674 271 688 q 311 661 296 661 q 345 685 331 661 q 360 753 360 708 q 347 810 360 789 q 311 836 333 832 q 274 814 289 839 q 258 753 258 789 m 1321 185 q 1257 28 1326 83 q 1082 -28 1188 -28 q 909 33 978 -28 q 842 185 840 94 q 883 303 843 253 q 976 375 924 353 q 1082 397 1029 397 q 1251 341 1186 397 q 1321 185 1317 285 m 1083 90 q 1117 113 1103 90 q 1131 181 1131 136 q 1125 222 1131 204 q 1109 251 1119 240 q 1083 264 1099 263 q 1056 256 1068 267 q 1037 224 1043 244 q 1031 181 1031 204 q 1045 117 1031 143 q 1083 90 1060 90 z "},"&":{"ha":1107,"x_min":13,"x_max":1040,"o":"m 1036 343 q 1028 252 1040 319 q 988 117 1017 185 q 925 42 960 50 q 936 11 933 24 q 922 -53 947 -26 q 857 -90 897 -81 q 774 -99 817 -100 q 703 -89 731 -99 q 629 -19 682 -82 q 344 -14 515 -24 q 96 62 178 -6 q 15 274 14 129 q 32 372 15 325 q 69 444 49 418 q 104 494 89 469 q 118 532 119 518 q 107 557 117 546 q 87 577 97 568 q 68 617 76 586 q 61 694 60 647 q 163 892 64 818 q 458 964 261 965 q 639 923 558 964 q 764 818 719 882 q 811 683 808 754 q 801 606 814 639 q 767 554 788 572 q 722 523 746 536 q 676 503 697 510 q 642 492 654 497 q 632 479 629 486 q 690 372 642 453 q 761 276 739 292 q 769 285 768 272 q 769 317 771 293 q 776 392 768 374 q 856 432 794 428 q 974 410 917 436 q 1036 343 1031 383 m 365 265 q 413 231 381 238 q 433 242 433 225 q 431 254 433 247 q 371 329 408 314 q 360 321 364 332 q 365 265 351 290 m 374 656 q 403 632 379 639 q 447 631 426 625 q 467 654 468 638 q 456 708 467 692 q 413 722 444 724 q 377 703 389 721 q 374 656 365 686 z "},"'":{"ha":354,"x_min":8,"x_max":344,"o":"m 335 851 q 330 752 344 801 q 288 668 315 703 q 249 640 272 649 q 202 632 225 631 q 158 641 179 633 q 122 661 136 649 q 106 686 108 674 q 125 750 100 710 q 122 761 132 763 q 75 768 100 761 q 29 797 50 775 q 11 851 8 819 q 63 939 17 906 q 179 972 108 972 q 258 955 224 972 q 310 911 292 938 q 335 851 328 885 z "},"(":{"ha":736,"x_min":19,"x_max":678,"o":"m 538 121 q 640 42 604 117 q 658 -107 676 -33 q 571 -181 639 -181 q 360 -145 454 -181 q 203 -49 265 -110 q 99 97 140 11 q 39 277 57 182 q 21 479 21 372 q 42 685 21 589 q 110 865 64 782 q 222 1008 156 949 q 385 1098 289 1067 q 597 1124 482 1129 q 665 1053 656 1121 q 639 917 674 985 q 556 847 604 850 q 450 811 494 844 q 382 724 406 778 q 347 610 358 669 q 336 486 336 551 q 538 121 335 132 z "},")":{"ha":736,"x_min":53,"x_max":715,"o":"m 138 1119 q 350 1094 254 1125 q 513 1003 446 1063 q 625 861 579 944 q 692 681 671 778 q 714 476 714 585 q 696 273 714 368 q 636 93 678 178 q 532 -53 594 8 q 376 -149 469 -114 q 164 -185 282 -185 q 78 -111 97 -185 q 94 38 58 -37 q 197 117 131 113 q 399 482 401 128 q 392 581 399 533 q 370 676 386 628 q 330 760 354 724 q 267 819 306 796 q 179 844 229 842 q 92 926 126 846 q 78 1074 54 1011 q 138 1119 94 1117 z "},"*":{"ha":667,"x_min":6,"x_max":658,"o":"m 554 869 q 601 859 576 874 q 638 820 625 844 q 655 769 651 796 q 639 722 658 743 q 513 668 617 699 q 586 592 560 626 q 581 535 604 568 q 517 484 558 503 q 446 481 475 465 q 342 558 404 501 q 238 481 279 501 q 166 484 208 465 q 101 535 124 503 q 96 592 78 568 q 167 665 121 624 q 26 722 51 696 q 10 769 7 743 q 26 820 13 796 q 64 859 40 844 q 111 869 88 874 q 229 836 161 861 q 242 938 225 914 q 305 972 260 965 q 390 966 350 979 q 435 926 429 953 q 442 838 442 890 q 554 869 507 861 z "},"+":{"ha":578,"x_min":-1,"x_max":572,"o":"m 511 619 q 555 581 539 614 q 571 510 571 547 q 547 442 571 474 q 476 407 522 411 q 401 403 442 404 q 389 300 396 343 q 336 247 382 261 q 244 244 290 232 q 190 281 199 256 q 172 408 176 324 q 67 421 111 414 q 14 474 28 428 q 11 565 0 519 q 49 619 22 611 q 176 638 92 633 q 190 743 182 701 q 230 788 197 771 q 299 803 263 804 q 368 778 336 803 q 403 710 400 754 q 407 635 406 675 q 511 619 469 629 z "},",":{"ha":354,"x_min":10,"x_max":343,"o":"m 336 96 q 338 25 343 60 q 319 -38 332 -10 q 289 -89 307 -67 q 239 -120 269 -112 q 181 -122 208 -128 q 131 -101 153 -115 q 107 -71 110 -86 q 126 -7 101 -46 q 124 6 133 6 q 76 13 101 6 q 31 41 51 19 q 13 96 10 63 q 64 182 18 149 q 181 215 110 215 q 286 181 246 215 q 336 96 326 147 z "},"-":{"ha":565,"x_min":7,"x_max":553,"o":"m 493 633 q 536 594 521 626 q 551 524 551 561 q 528 456 551 488 q 461 421 504 425 q 258 418 369 414 q 71 435 146 422 q 21 488 35 442 q 18 579 7 533 q 53 633 29 625 q 265 654 124 656 q 493 633 406 653 z "},".":{"ha":344,"x_min":14,"x_max":331,"o":"m 60 184 q 84 202 60 184 q 172 221 107 221 q 283 184 238 221 q 329 96 329 147 q 283 8 329 44 q 172 -29 238 -29 q 60 8 107 -29 q 14 96 14 44 q 60 184 14 147 z "},"/":{"ha":849,"x_min":53,"x_max":783,"o":"m 485 925 q 600 972 528 969 q 727 936 672 975 q 779 838 782 897 q 647 476 775 751 q 433 69 519 201 q 257 -14 378 -15 q 100 42 156 -12 q 78 143 54 88 q 188 348 103 203 q 301 553 274 493 q 349 656 318 588 q 401 771 379 724 q 446 864 422 818 q 485 925 469 910 z "},":":{"ha":356,"x_min":19,"x_max":336,"o":"m 289 314 q 266 296 289 314 q 178 278 243 278 q 66 314 113 278 q 19 403 19 350 q 32 451 19 428 q 65 490 44 474 q 115 517 86 507 q 178 528 144 528 q 289 491 243 528 q 335 402 335 454 q 289 314 335 350 m 289 17 q 266 -1 289 17 q 178 -19 243 -19 q 66 17 113 -19 q 19 106 19 54 q 66 194 19 157 q 178 231 113 231 q 289 194 243 231 q 335 106 335 157 q 289 17 335 54 z "},";":{"ha":365,"x_min":17,"x_max":353,"o":"m 289 314 q 266 296 289 314 q 178 278 243 278 q 66 314 113 278 q 19 403 19 350 q 32 451 19 428 q 65 490 44 474 q 115 517 86 507 q 178 528 144 528 q 213 524 196 528 q 247 515 231 521 q 276 500 263 508 q 300 481 289 492 q 319 457 311 469 q 331 431 326 444 q 335 403 335 417 q 289 314 335 350 m 343 106 q 338 5 353 54 q 296 -79 324 -44 q 246 -111 276 -103 q 188 -112 215 -119 q 138 -92 160 -106 q 114 -61 117 -78 q 133 3 108 -37 q 131 15 140 15 q 83 22 108 14 q 38 51 58 29 q 19 106 17 72 q 35 154 22 132 q 71 192 49 176 q 123 216 93 207 q 188 225 153 225 q 293 191 253 225 q 343 106 333 157 z "},"<":{"ha":589,"x_min":14,"x_max":574,"o":"m 481 342 q 535 320 513 343 q 565 264 558 297 q 567 197 571 231 q 540 140 563 164 q 481 118 517 117 q 430 122 461 118 q 354 135 399 126 q 297 146 310 143 q 92 229 171 167 q 14 386 14 292 q 83 545 14 485 q 299 636 151 606 q 500 642 439 664 q 556 589 539 626 q 567 515 574 551 q 539 451 561 479 q 486 424 517 422 q 389 419 438 425 q 310 404 340 414 q 278 385 281 394 q 349 353 274 365 q 481 342 424 340 z "},"=":{"ha":578,"x_min":14,"x_max":560,"o":"m 78 554 q 28 606 42 560 q 25 697 14 651 q 60 751 36 743 q 272 773 131 774 q 500 751 413 772 q 542 713 526 746 q 558 643 558 681 q 535 574 558 606 q 468 539 511 543 q 265 536 376 532 q 78 554 153 540 m 500 469 q 542 430 526 463 q 558 360 558 397 q 535 292 558 324 q 468 257 511 260 q 265 253 376 249 q 78 271 153 257 q 28 324 42 278 q 25 415 14 369 q 60 469 36 461 q 272 490 131 492 q 500 469 413 489 z "},">":{"ha":589,"x_min":15,"x_max":575,"o":"m 290 636 q 506 545 438 606 q 575 386 575 485 q 497 229 575 292 q 292 146 418 167 q 235 135 279 143 q 159 122 190 126 q 108 118 128 118 q 49 140 72 117 q 22 197 26 164 q 24 264 18 231 q 53 320 31 297 q 107 342 76 343 q 240 353 165 340 q 311 385 315 365 q 242 413 307 400 q 103 424 176 426 q 50 451 72 422 q 22 515 28 479 q 33 589 15 551 q 89 642 50 626 q 290 636 149 664 z "},"?":{"ha":817,"x_min":69,"x_max":747,"o":"m 467 979 q 673 884 599 961 q 747 708 747 807 q 742 622 747 656 q 718 554 736 589 q 663 494 700 519 q 567 446 626 468 q 508 419 521 429 q 497 388 496 410 q 469 309 500 340 q 393 269 439 278 q 299 265 347 261 q 217 290 251 268 q 178 340 182 311 q 172 379 176 350 q 166 421 167 408 q 165 457 165 433 q 169 494 164 481 q 182 526 174 508 q 208 558 190 544 q 249 583 225 571 q 319 609 271 593 q 398 640 368 625 q 431 672 428 654 q 425 717 435 704 q 385 728 415 729 q 328 712 361 726 q 283 671 296 697 q 269 654 279 661 q 245 644 258 647 q 216 642 232 642 q 183 646 200 642 q 150 656 167 650 q 119 674 133 663 q 93 699 104 686 q 76 731 82 713 q 69 769 69 750 q 130 900 69 847 q 280 972 190 953 q 467 979 369 992 m 340 221 q 419 204 383 221 q 477 158 456 188 q 499 96 499 129 q 452 8 499 44 q 340 -29 406 -29 q 229 8 275 -29 q 183 96 183 44 q 229 184 183 147 q 340 221 275 221 z "},"@":{"ha":1092,"x_min":13,"x_max":1075,"o":"m 538 960 q 766 933 668 960 q 922 863 864 907 q 1015 751 979 818 q 1063 617 1050 685 q 1075 463 1075 549 q 1058 306 1075 375 q 1014 196 1040 238 q 949 127 988 154 q 874 90 911 100 q 794 79 836 79 q 634 119 692 79 q 583 225 576 160 q 576 226 576 228 q 567 221 575 225 q 548 213 558 217 q 512 207 538 210 q 451 206 486 204 q 356 244 399 208 q 294 332 314 279 q 268 450 274 385 q 283 576 263 515 q 461 718 322 710 q 515 714 490 719 q 551 701 540 708 q 573 687 563 693 q 585 680 583 681 q 589 689 586 679 q 658 725 594 719 q 779 688 738 729 q 801 630 803 664 q 798 512 799 596 q 797 361 797 428 l 797 294 q 832 268 807 244 q 879 404 868 300 q 881 471 882 438 q 881 478 881 474 q 880 522 881 507 q 875 567 879 538 q 865 616 871 597 q 849 661 860 635 q 822 703 838 688 q 782 738 806 719 q 728 768 758 757 q 655 786 697 779 q 563 793 613 793 q 299 713 382 793 q 215 476 215 633 q 238 306 215 376 q 298 199 261 235 q 383 157 335 164 q 452 110 428 151 q 465 27 476 68 q 406 -18 453 -14 q 327 -11 371 -21 q 228 30 283 -1 q 128 112 174 61 q 51 254 83 163 q 15 464 18 346 q 44 663 13 575 q 126 805 75 750 q 249 896 178 860 q 390 946 319 932 q 538 960 461 960 m 589 379 q 591 429 589 390 q 593 489 593 468 q 589 540 593 510 q 567 561 588 554 q 522 558 546 568 q 490 517 497 547 q 529 381 468 428 q 583 367 563 354 q 589 379 589 371 z "},"A":{"ha":889,"x_min":8,"x_max":881,"o":"m 511 371 q 474 404 507 394 q 408 405 442 414 q 371 371 375 396 q 362 288 363 332 q 367 192 361 244 q 372 138 372 139 q 338 51 374 89 q 247 2 301 14 q 139 -4 193 -10 q 47 39 85 1 q 10 138 10 76 q 28 439 11 286 q 136 817 44 594 q 571 964 221 1022 q 685 907 633 953 q 772 791 736 861 q 830 640 807 721 q 864 472 853 560 q 876 250 879 351 q 856 97 874 149 q 798 27 840 51 q 706 3 756 3 q 610 17 657 4 q 533 58 564 29 q 504 119 503 88 q 509 175 506 138 q 515 241 513 213 q 517 306 518 269 q 511 371 517 343 m 443 688 q 404 659 424 690 q 390 593 385 628 q 442 575 393 574 q 494 596 492 576 q 493 623 496 610 q 485 647 490 636 q 474 667 481 658 q 458 681 467 675 q 443 688 450 686 z "},"À":{"ha":889,"x_min":8,"x_max":881,"o":"m 511 371 q 474 404 507 394 q 408 405 442 414 q 371 371 375 396 q 362 288 363 332 q 367 192 361 244 q 372 138 372 139 q 338 51 374 89 q 247 2 301 14 q 139 -4 193 -10 q 47 39 85 1 q 10 138 10 76 q 28 439 11 286 q 136 817 44 594 q 571 964 221 1022 q 685 907 633 953 q 772 791 736 861 q 830 640 807 721 q 864 472 853 560 q 876 250 879 351 q 856 97 874 149 q 798 27 840 51 q 706 3 756 3 q 610 17 657 4 q 533 58 564 29 q 504 119 503 88 q 509 175 506 138 q 515 241 513 213 q 517 306 518 269 q 511 371 517 343 m 443 688 q 404 659 424 690 q 390 593 385 628 q 442 575 393 574 q 494 596 492 576 q 493 623 496 610 q 485 647 490 636 q 474 667 481 658 q 458 681 467 675 q 443 688 450 686 z "},"Á":{"ha":889,"x_min":8,"x_max":881,"o":"m 511 371 q 474 404 507 394 q 408 405 442 414 q 371 371 375 396 q 362 288 363 332 q 367 192 361 244 q 372 138 372 139 q 338 51 374 89 q 247 2 301 14 q 139 -4 193 -10 q 47 39 85 1 q 10 138 10 76 q 28 439 11 286 q 136 817 44 594 q 571 964 221 1022 q 685 907 633 953 q 772 791 736 861 q 830 640 807 721 q 864 472 853 560 q 876 250 879 351 q 856 97 874 149 q 798 27 840 51 q 706 3 756 3 q 610 17 657 4 q 533 58 564 29 q 504 119 503 88 q 509 175 506 138 q 515 241 513 213 q 517 306 518 269 q 511 371 517 343 m 443 688 q 404 659 424 690 q 390 593 385 628 q 442 575 393 574 q 494 596 492 576 q 493 623 496 610 q 485 647 490 636 q 474 667 481 658 q 458 681 467 675 q 443 688 450 686 z "},"Â":{"ha":889,"x_min":8,"x_max":881,"o":"m 511 371 q 474 404 507 394 q 408 405 442 414 q 371 371 375 396 q 362 288 363 332 q 367 192 361 244 q 372 138 372 139 q 338 51 374 89 q 247 2 301 14 q 139 -4 193 -10 q 47 39 85 1 q 10 138 10 76 q 28 439 11 286 q 136 817 44 594 q 571 964 221 1022 q 685 907 633 953 q 772 791 736 861 q 830 640 807 721 q 864 472 853 560 q 876 250 879 351 q 856 97 874 149 q 798 27 840 51 q 706 3 756 3 q 610 17 657 4 q 533 58 564 29 q 504 119 503 88 q 509 175 506 138 q 515 241 513 213 q 517 306 518 269 q 511 371 517 343 m 443 688 q 404 659 424 690 q 390 593 385 628 q 442 575 393 574 q 494 596 492 576 q 493 623 496 610 q 485 647 490 636 q 474 667 481 658 q 458 681 467 675 q 443 688 450 686 z "},"Ã":{"ha":889,"x_min":8,"x_max":881,"o":"m 511 371 q 474 404 507 394 q 408 405 442 414 q 371 371 375 396 q 362 288 363 332 q 367 192 361 244 q 372 138 372 139 q 338 51 374 89 q 247 2 301 14 q 139 -4 193 -10 q 47 39 85 1 q 10 138 10 76 q 28 439 11 286 q 136 817 44 594 q 571 964 221 1022 q 685 907 633 953 q 772 791 736 861 q 830 640 807 721 q 864 472 853 560 q 876 250 879 351 q 856 97 874 149 q 798 27 840 51 q 706 3 756 3 q 610 17 657 4 q 533 58 564 29 q 504 119 503 88 q 509 175 506 138 q 515 241 513 213 q 517 306 518 269 q 511 371 517 343 m 443 688 q 404 659 424 690 q 390 593 385 628 q 442 575 393 574 q 494 596 492 576 q 493 623 496 610 q 485 647 490 636 q 474 667 481 658 q 458 681 467 675 q 443 688 450 686 z "},"Ä":{"ha":889,"x_min":8,"x_max":881,"o":"m 511 371 q 474 404 507 394 q 408 405 442 414 q 371 371 375 396 q 362 288 363 332 q 367 192 361 244 q 372 138 372 139 q 338 51 374 89 q 247 2 301 14 q 139 -4 193 -10 q 47 39 85 1 q 10 138 10 76 q 28 439 11 286 q 136 817 44 594 q 571 964 221 1022 q 685 907 633 953 q 772 791 736 861 q 830 640 807 721 q 864 472 853 560 q 876 250 879 351 q 856 97 874 149 q 798 27 840 51 q 706 3 756 3 q 610 17 657 4 q 533 58 564 29 q 504 119 503 88 q 509 175 506 138 q 515 241 513 213 q 517 306 518 269 q 511 371 517 343 m 443 688 q 404 659 424 690 q 390 593 385 628 q 442 575 393 574 q 494 596 492 576 q 493 623 496 610 q 485 647 490 636 q 474 667 481 658 q 458 681 467 675 q 443 688 450 686 z "},"Å":{"ha":889,"x_min":8,"x_max":881,"o":"m 511 371 q 474 404 507 394 q 408 405 442 414 q 371 371 375 396 q 362 288 363 332 q 367 192 361 244 q 372 138 372 139 q 338 51 374 89 q 247 2 301 14 q 139 -4 193 -10 q 47 39 85 1 q 10 138 10 76 q 28 439 11 286 q 136 817 44 594 q 571 964 221 1022 q 685 907 633 953 q 772 791 736 861 q 830 640 807 721 q 864 472 853 560 q 876 250 879 351 q 856 97 874 149 q 798 27 840 51 q 706 3 756 3 q 610 17 657 4 q 533 58 564 29 q 504 119 503 88 q 509 175 506 138 q 515 241 513 213 q 517 306 518 269 q 511 371 517 343 m 443 688 q 404 659 424 690 q 390 593 385 628 q 442 575 393 574 q 494 596 492 576 q 493 623 496 610 q 485 647 490 636 q 474 667 481 658 q 458 681 467 675 q 443 688 450 686 z "},"B":{"ha":875,"x_min":19,"x_max":867,"o":"m 25 154 q 34 323 21 207 q 43 513 47 439 q 38 596 42 539 q 31 681 33 653 q 27 768 29 710 q 28 857 25 826 q 78 938 29 906 q 201 981 126 971 q 360 988 275 992 q 524 967 444 983 q 697 899 621 946 q 815 792 772 853 q 860 667 857 732 q 851 598 861 629 q 826 549 842 567 q 795 517 811 531 q 768 500 779 504 l 757 494 q 767 488 761 492 q 788 466 772 483 q 817 427 804 449 q 843 367 831 406 q 860 282 856 328 q 849 183 865 229 q 803 106 833 138 q 733 52 774 75 q 652 17 693 29 q 571 0 611 4 q 25 154 46 -56 m 524 326 q 520 349 526 338 q 502 367 514 360 q 474 381 490 375 q 441 389 458 386 q 409 392 424 392 q 385 388 394 392 q 372 376 375 383 q 368 326 368 358 q 372 275 368 294 q 390 261 375 265 q 426 260 406 257 q 466 272 446 264 q 502 295 486 281 q 524 326 518 310 m 372 701 q 372 610 357 676 q 399 594 375 597 q 449 594 422 590 q 499 611 476 599 q 524 640 522 624 q 504 674 525 657 q 457 701 483 692 q 406 714 431 711 q 372 701 381 717 z "},"C":{"ha":826,"x_min":-7,"x_max":818,"o":"m 507 -3 q 130 94 267 -26 q 10 439 -7 214 q 22 551 14 500 q 43 663 29 601 q 80 772 57 724 q 135 864 103 819 q 217 938 168 908 q 328 979 267 968 q 497 984 419 996 q 633 940 574 972 q 734 865 693 908 q 797 778 775 822 q 818 699 818 735 q 777 610 818 647 q 684 563 736 574 q 581 568 632 551 q 510 629 529 585 q 497 650 506 639 q 476 672 489 661 q 447 691 464 683 q 414 699 431 699 q 388 683 400 699 q 368 644 376 668 q 354 589 360 621 q 345 527 349 557 q 340 467 342 497 q 371 333 336 396 q 440 269 406 271 q 480 275 464 269 q 514 294 496 281 q 564 339 532 308 q 629 363 586 360 q 714 356 672 367 q 787 321 756 344 q 818 269 818 297 q 813 219 818 244 q 790 154 808 193 q 740 85 771 115 q 648 31 708 56 q 507 -3 588 6 z "},"Ç":{"ha":826,"x_min":-7,"x_max":818,"o":"m 507 -3 q 130 94 267 -26 q 10 439 -7 214 q 22 551 14 500 q 43 663 29 601 q 80 772 57 724 q 135 864 103 819 q 217 938 168 908 q 328 979 267 968 q 497 984 419 996 q 633 940 574 972 q 734 865 693 908 q 797 778 775 822 q 818 699 818 735 q 777 610 818 647 q 684 563 736 574 q 581 568 632 551 q 510 629 529 585 q 497 650 506 639 q 476 672 489 661 q 447 691 464 683 q 414 699 431 699 q 388 683 400 699 q 368 644 376 668 q 354 589 360 621 q 345 527 349 557 q 340 467 342 497 q 371 333 336 396 q 440 269 406 271 q 480 275 464 269 q 514 294 496 281 q 564 339 532 308 q 629 363 586 360 q 714 356 672 367 q 787 321 756 344 q 818 269 818 297 q 813 219 818 244 q 790 154 808 193 q 740 85 771 115 q 648 31 708 56 q 507 -3 588 6 z "},"D":{"ha":846,"x_min":25,"x_max":842,"o":"m 404 976 q 724 819 606 944 q 840 489 842 693 q 811 313 840 399 q 735 163 782 226 q 630 58 689 100 q 514 8 571 17 q 188 9 306 -24 q 47 124 71 42 q 31 349 35 169 q 28 683 26 528 l 29 839 q 48 901 29 872 q 110 956 67 931 q 225 986 153 981 q 404 976 297 992 m 517 426 q 453 672 535 585 q 368 713 407 721 q 347 689 351 706 q 333 478 333 611 q 347 267 332 344 q 401 254 354 233 q 496 351 460 281 q 517 426 513 388 z "},"E":{"ha":822,"x_min":22,"x_max":825,"o":"m 701 683 q 576 688 640 683 q 478 694 511 692 q 417 697 446 697 q 376 687 388 696 q 363 658 365 678 q 360 624 360 644 q 372 601 361 604 q 426 605 379 599 q 519 613 474 611 q 613 601 565 615 q 664 542 647 589 q 665 447 681 494 q 603 386 650 399 q 517 373 563 375 q 442 374 472 371 q 390 376 413 378 q 363 367 367 375 q 353 317 354 349 q 363 271 351 286 q 413 262 368 261 q 503 269 457 263 q 608 280 550 275 q 697 282 665 285 q 775 242 744 278 q 810 163 806 206 q 784 82 814 121 q 694 35 754 43 q 587 21 639 26 q 456 10 535 15 q 310 8 376 4 q 181 24 244 13 q 78 64 118 36 q 32 135 39 92 q 24 241 22 210 q 30 357 25 272 q 35 511 35 442 q 31 631 35 568 q 26 726 28 694 q 29 795 25 757 q 46 868 33 833 q 149 931 60 908 q 351 955 239 953 q 565 951 464 957 q 721 933 667 944 q 800 881 775 922 q 819 797 825 840 q 781 718 813 753 q 701 683 749 683 z "},"È":{"ha":822,"x_min":22,"x_max":825,"o":"m 701 683 q 576 688 640 683 q 478 694 511 692 q 417 697 446 697 q 376 687 388 696 q 363 658 365 678 q 360 624 360 644 q 372 601 361 604 q 426 605 379 599 q 519 613 474 611 q 613 601 565 615 q 664 542 647 589 q 665 447 681 494 q 603 386 650 399 q 517 373 563 375 q 442 374 472 371 q 390 376 413 378 q 363 367 367 375 q 353 317 354 349 q 363 271 351 286 q 413 262 368 261 q 503 269 457 263 q 608 280 550 275 q 697 282 665 285 q 775 242 744 278 q 810 163 806 206 q 784 82 814 121 q 694 35 754 43 q 587 21 639 26 q 456 10 535 15 q 310 8 376 4 q 181 24 244 13 q 78 64 118 36 q 32 135 39 92 q 24 241 22 210 q 30 357 25 272 q 35 511 35 442 q 31 631 35 568 q 26 726 28 694 q 29 795 25 757 q 46 868 33 833 q 149 931 60 908 q 351 955 239 953 q 565 951 464 957 q 721 933 667 944 q 800 881 775 922 q 819 797 825 840 q 781 718 813 753 q 701 683 749 683 z "},"É":{"ha":822,"x_min":22,"x_max":825,"o":"m 701 683 q 576 688 640 683 q 478 694 511 692 q 417 697 446 697 q 376 687 388 696 q 363 658 365 678 q 360 624 360 644 q 372 601 361 604 q 426 605 379 599 q 519 613 474 611 q 613 601 565 615 q 664 542 647 589 q 665 447 681 494 q 603 386 650 399 q 517 373 563 375 q 442 374 472 371 q 390 376 413 378 q 363 367 367 375 q 353 317 354 349 q 363 271 351 286 q 413 262 368 261 q 503 269 457 263 q 608 280 550 275 q 697 282 665 285 q 775 242 744 278 q 810 163 806 206 q 784 82 814 121 q 694 35 754 43 q 587 21 639 26 q 456 10 535 15 q 310 8 376 4 q 181 24 244 13 q 78 64 118 36 q 32 135 39 92 q 24 241 22 210 q 30 357 25 272 q 35 511 35 442 q 31 631 35 568 q 26 726 28 694 q 29 795 25 757 q 46 868 33 833 q 149 931 60 908 q 351 955 239 953 q 565 951 464 957 q 721 933 667 944 q 800 881 775 922 q 819 797 825 840 q 781 718 813 753 q 701 683 749 683 z "},"Ê":{"ha":822,"x_min":22,"x_max":825,"o":"m 701 683 q 576 688 640 683 q 478 694 511 692 q 417 697 446 697 q 376 687 388 696 q 363 658 365 678 q 360 624 360 644 q 372 601 361 604 q 426 605 379 599 q 519 613 474 611 q 613 601 565 615 q 664 542 647 589 q 665 447 681 494 q 603 386 650 399 q 517 373 563 375 q 442 374 472 371 q 390 376 413 378 q 363 367 367 375 q 353 317 354 349 q 363 271 351 286 q 413 262 368 261 q 503 269 457 263 q 608 280 550 275 q 697 282 665 285 q 775 242 744 278 q 810 163 806 206 q 784 82 814 121 q 694 35 754 43 q 587 21 639 26 q 456 10 535 15 q 310 8 376 4 q 181 24 244 13 q 78 64 118 36 q 32 135 39 92 q 24 241 22 210 q 30 357 25 272 q 35 511 35 442 q 31 631 35 568 q 26 726 28 694 q 29 795 25 757 q 46 868 33 833 q 149 931 60 908 q 351 955 239 953 q 565 951 464 957 q 721 933 667 944 q 800 881 775 922 q 819 797 825 840 q 781 718 813 753 q 701 683 749 683 z "},"Ë":{"ha":822,"x_min":22,"x_max":825,"o":"m 701 683 q 576 688 640 683 q 478 694 511 692 q 417 697 446 697 q 376 687 388 696 q 363 658 365 678 q 360 624 360 644 q 372 601 361 604 q 426 605 379 599 q 519 613 474 611 q 613 601 565 615 q 664 542 647 589 q 665 447 681 494 q 603 386 650 399 q 517 373 563 375 q 442 374 472 371 q 390 376 413 378 q 363 367 367 375 q 353 317 354 349 q 363 271 351 286 q 413 262 368 261 q 503 269 457 263 q 608 280 550 275 q 697 282 665 285 q 775 242 744 278 q 810 163 806 206 q 784 82 814 121 q 694 35 754 43 q 587 21 639 26 q 456 10 535 15 q 310 8 376 4 q 181 24 244 13 q 78 64 118 36 q 32 135 39 92 q 24 241 22 210 q 30 357 25 272 q 35 511 35 442 q 31 631 35 568 q 26 726 28 694 q 29 795 25 757 q 46 868 33 833 q 149 931 60 908 q 351 955 239 953 q 565 951 464 957 q 721 933 667 944 q 800 881 775 922 q 819 797 825 840 q 781 718 813 753 q 701 683 749 683 z "},"F":{"ha":817,"x_min":18,"x_max":843,"o":"m 618 582 q 675 539 658 569 q 685 476 692 508 q 658 417 679 444 q 608 382 636 389 q 513 374 574 374 q 411 373 451 374 q 368 363 371 372 q 368 323 364 349 q 379 275 372 297 q 392 212 386 253 q 394 129 397 171 q 357 53 392 85 q 273 15 322 22 q 174 15 224 7 q 85 55 124 22 q 36 139 46 88 q 28 228 28 210 q 34 311 29 246 q 39 449 39 376 q 28 599 39 514 q 21 739 18 685 q 50 857 24 793 q 160 927 69 903 q 362 953 250 951 q 572 948 474 954 q 725 931 671 942 q 819 851 797 915 q 808 732 842 786 q 707 689 774 678 q 503 700 604 704 q 368 681 403 696 q 352 633 353 674 q 368 590 351 593 q 475 592 375 588 q 618 582 575 596 z "},"G":{"ha":831,"x_min":3,"x_max":818,"o":"m 464 568 q 508 572 479 571 q 578 569 538 572 q 660 553 619 565 q 738 524 701 542 q 796 472 774 506 q 818 393 818 438 q 816 331 818 360 q 806 260 814 301 q 786 185 799 219 q 749 115 774 151 q 694 53 725 79 q 614 10 663 28 q 507 -12 565 -8 q 149 78 271 -29 q 10 429 28 185 q 19 596 4 513 q 69 756 33 679 q 171 891 104 833 q 328 969 238 949 q 495 990 421 993 q 623 970 569 988 q 715 921 676 953 q 773 854 753 889 q 801 783 793 819 q 801 704 810 740 q 770 647 792 668 q 719 610 749 625 q 655 595 689 596 q 590 603 621 594 q 531 632 558 611 q 489 683 504 653 q 470 703 483 696 q 437 707 457 711 q 396 681 417 703 q 357 592 372 654 q 340 458 342 529 q 355 345 339 392 q 394 280 371 299 q 440 261 417 261 q 474 269 463 260 q 489 292 486 279 q 494 329 492 304 q 492 339 496 336 q 482 342 489 342 q 467 341 475 342 q 446 342 458 340 q 422 347 433 343 q 383 410 393 360 q 395 510 374 460 q 464 568 417 560 z "},"H":{"ha":865,"x_min":18,"x_max":846,"o":"m 838 144 q 799 58 833 93 q 717 15 764 24 q 624 17 671 7 q 544 66 578 26 q 510 164 511 106 q 497 343 503 311 q 460 380 492 369 q 397 382 428 390 q 363 356 367 374 q 363 301 360 328 q 369 229 365 275 q 374 156 374 183 q 338 59 372 96 q 253 17 303 22 q 154 26 204 13 q 67 80 104 39 q 28 174 31 121 q 35 331 24 235 q 39 504 46 426 q 28 838 19 699 q 65 917 31 885 q 149 957 100 949 q 245 959 197 965 q 328 923 293 953 q 365 847 363 893 q 365 765 367 807 q 359 699 363 724 q 356 651 356 675 q 365 613 357 628 q 408 578 376 590 q 467 576 439 567 q 501 613 496 585 q 494 719 504 628 q 488 838 485 810 q 535 912 494 882 q 627 948 575 942 q 730 946 679 954 q 813 903 781 938 q 840 817 846 868 q 823 494 821 607 q 833 281 825 382 q 838 144 840 181 z "},"I":{"ha":744,"x_min":-7,"x_max":750,"o":"m 629 292 q 718 230 688 285 q 740 117 749 175 q 693 39 732 58 q 475 11 644 17 q 168 17 306 6 q 81 45 117 19 q 31 106 44 71 q 16 178 17 142 q 30 244 15 215 q 69 282 44 274 q 149 290 94 290 q 208 300 203 289 q 222 486 222 311 q 208 676 221 661 q 193 689 201 685 q 171 693 185 693 q 135 693 157 693 q 78 694 113 693 q 13 763 33 696 q 11 895 -7 831 q 78 954 29 960 q 193 949 122 949 q 315 951 264 949 q 465 959 365 953 q 593 967 564 965 q 685 934 653 971 q 721 850 718 897 q 708 759 724 803 q 667 707 693 715 q 606 693 639 696 q 553 687 572 690 q 529 669 535 683 q 518 487 521 653 q 525 300 515 321 q 542 290 531 290 q 574 292 554 289 q 629 292 594 296 z "},"Ì":{"ha":744,"x_min":-7,"x_max":750,"o":"m 629 292 q 718 230 688 285 q 740 117 749 175 q 693 39 732 58 q 475 11 644 17 q 168 17 306 6 q 81 45 117 19 q 31 106 44 71 q 16 178 17 142 q 30 244 15 215 q 69 282 44 274 q 149 290 94 290 q 208 300 203 289 q 222 486 222 311 q 208 676 221 661 q 193 689 201 685 q 171 693 185 693 q 135 693 157 693 q 78 694 113 693 q 13 763 33 696 q 11 895 -7 831 q 78 954 29 960 q 193 949 122 949 q 315 951 264 949 q 465 959 365 953 q 593 967 564 965 q 685 934 653 971 q 721 850 718 897 q 708 759 724 803 q 667 707 693 715 q 606 693 639 696 q 553 687 572 690 q 529 669 535 683 q 518 487 521 653 q 525 300 515 321 q 542 290 531 290 q 574 292 554 289 q 629 292 594 296 z "},"Í":{"ha":744,"x_min":-7,"x_max":750,"o":"m 629 292 q 718 230 688 285 q 740 117 749 175 q 693 39 732 58 q 475 11 644 17 q 168 17 306 6 q 81 45 117 19 q 31 106 44 71 q 16 178 17 142 q 30 244 15 215 q 69 282 44 274 q 149 290 94 290 q 208 300 203 289 q 222 486 222 311 q 208 676 221 661 q 193 689 201 685 q 171 693 185 693 q 135 693 157 693 q 78 694 113 693 q 13 763 33 696 q 11 895 -7 831 q 78 954 29 960 q 193 949 122 949 q 315 951 264 949 q 465 959 365 953 q 593 967 564 965 q 685 934 653 971 q 721 850 718 897 q 708 759 724 803 q 667 707 693 715 q 606 693 639 696 q 553 687 572 690 q 529 669 535 683 q 518 487 521 653 q 525 300 515 321 q 542 290 531 290 q 574 292 554 289 q 629 292 594 296 z "},"Î":{"ha":744,"x_min":-7,"x_max":750,"o":"m 629 292 q 718 230 688 285 q 740 117 749 175 q 693 39 732 58 q 475 11 644 17 q 168 17 306 6 q 81 45 117 19 q 31 106 44 71 q 16 178 17 142 q 30 244 15 215 q 69 282 44 274 q 149 290 94 290 q 208 300 203 289 q 222 486 222 311 q 208 676 221 661 q 193 689 201 685 q 171 693 185 693 q 135 693 157 693 q 78 694 113 693 q 13 763 33 696 q 11 895 -7 831 q 78 954 29 960 q 193 949 122 949 q 315 951 264 949 q 465 959 365 953 q 593 967 564 965 q 685 934 653 971 q 721 850 718 897 q 708 759 724 803 q 667 707 693 715 q 606 693 639 696 q 553 687 572 690 q 529 669 535 683 q 518 487 521 653 q 525 300 515 321 q 542 290 531 290 q 574 292 554 289 q 629 292 594 296 z "},"Ï":{"ha":744,"x_min":-7,"x_max":750,"o":"m 629 292 q 718 230 688 285 q 740 117 749 175 q 693 39 732 58 q 475 11 644 17 q 168 17 306 6 q 81 45 117 19 q 31 106 44 71 q 16 178 17 142 q 30 244 15 215 q 69 282 44 274 q 149 290 94 290 q 208 300 203 289 q 222 486 222 311 q 208 676 221 661 q 193 689 201 685 q 171 693 185 693 q 135 693 157 693 q 78 694 113 693 q 13 763 33 696 q 11 895 -7 831 q 78 954 29 960 q 193 949 122 949 q 315 951 264 949 q 465 959 365 953 q 593 967 564 965 q 685 934 653 971 q 721 850 718 897 q 708 759 724 803 q 667 707 693 715 q 606 693 639 696 q 553 687 572 690 q 529 669 535 683 q 518 487 521 653 q 525 300 515 321 q 542 290 531 290 q 574 292 554 289 q 629 292 594 296 z "},"J":{"ha":835,"x_min":-14,"x_max":828,"o":"m 403 -24 q 172 19 261 -15 q 42 105 82 53 q -4 233 3 157 q 47 371 -14 325 q 178 408 108 417 q 263 354 249 399 q 288 309 269 329 q 328 277 306 289 q 374 260 351 265 q 418 258 397 254 q 450 272 439 261 q 489 444 485 310 q 469 651 493 579 q 401 693 457 690 q 260 672 344 696 q 182 671 211 660 q 138 706 153 682 q 123 764 124 731 q 131 828 122 797 q 156 886 139 860 q 190 922 172 913 q 379 966 261 957 q 606 952 497 975 q 754 879 714 929 q 813 584 800 824 q 796 215 826 344 q 672 24 768 83 q 403 -24 575 -35 z "},"K":{"ha":853,"x_min":19,"x_max":847,"o":"m 388 128 q 355 69 383 96 q 288 30 326 43 q 204 16 249 17 q 122 29 160 15 q 57 77 83 43 q 28 163 31 111 q 38 351 24 257 q 46 524 53 444 q 37 618 43 558 q 27 710 31 678 q 22 794 24 743 q 28 861 21 844 q 60 915 35 890 q 120 952 86 939 q 194 967 154 965 q 268 958 233 969 q 331 919 303 947 q 368 847 358 890 q 376 778 375 817 q 374 709 376 739 q 368 653 371 679 q 368 613 365 626 q 381 602 371 600 q 406 643 390 604 q 442 735 422 682 q 488 840 463 788 q 553 928 514 893 q 638 963 592 964 q 744 938 699 961 q 811 881 790 915 q 838 803 832 846 q 828 721 844 761 q 765 630 814 683 q 676 538 715 576 q 642 488 638 499 q 682 435 649 469 q 758 354 715 401 q 826 264 801 307 q 843 194 847 229 q 822 127 839 160 q 774 70 806 94 q 709 33 743 46 q 635 26 675 21 q 564 54 596 31 q 486 138 519 88 q 438 228 453 188 q 405 301 422 268 q 371 339 388 333 q 365 331 365 340 q 372 286 365 322 q 388 128 394 181 z "},"L":{"ha":826,"x_min":14,"x_max":839,"o":"m 64 103 q 25 197 35 140 q 19 301 15 254 q 31 419 22 347 q 40 528 39 490 q 42 689 43 611 q 40 790 42 767 q 42 842 39 814 q 81 915 50 885 q 151 958 111 946 q 237 964 190 969 q 321 935 283 958 q 367 872 349 918 q 390 777 385 826 q 399 679 396 728 q 397 608 401 631 q 385 522 393 569 q 371 442 378 475 q 360 378 364 410 q 358 328 356 347 q 368 301 360 308 q 424 292 381 289 q 510 306 467 296 q 606 324 553 315 q 692 331 660 333 q 775 298 739 326 q 824 230 811 269 q 835 151 838 190 q 804 81 833 111 q 726 43 775 50 q 562 24 644 31 q 372 17 479 18 q 181 37 264 15 q 64 103 97 58 z "},"M":{"ha":1304,"x_min":11,"x_max":1289,"o":"m 383 128 q 340 60 379 89 q 249 24 301 32 q 144 25 196 17 q 56 72 93 33 q 17 171 18 111 q 39 538 11 285 q 67 796 67 792 q 142 924 69 876 q 315 969 215 971 q 493 917 415 967 q 542 866 518 901 q 585 791 567 831 q 619 715 603 751 q 647 654 635 678 q 668 631 660 631 q 698 681 682 632 q 736 796 714 731 q 781 890 758 861 q 874 952 814 932 q 999 966 935 972 q 1122 939 1064 960 q 1217 876 1181 918 q 1251 786 1254 835 q 1269 492 1249 722 q 1285 163 1289 263 q 1246 64 1282 101 q 1159 19 1210 26 q 1058 21 1108 13 q 969 59 1007 29 q 925 128 931 89 q 925 297 919 171 q 919 449 931 422 q 886 444 915 467 q 840 360 849 414 q 833 251 835 326 q 818 125 831 176 q 732 47 804 71 q 587 43 660 24 q 497 115 514 63 q 476 245 482 160 q 463 346 469 331 q 414 439 450 404 q 392 444 397 457 q 381 360 381 422 q 386 240 382 299 q 383 128 390 182 z "},"N":{"ha":896,"x_min":21,"x_max":868,"o":"m 25 199 q 24 278 22 228 q 28 358 26 328 q 34 435 31 388 q 40 507 38 482 q 39 636 43 571 q 29 738 35 701 q 27 811 24 774 q 49 876 31 849 q 115 941 75 918 q 197 965 154 964 q 279 951 239 965 q 351 901 319 936 q 397 819 382 867 q 424 743 408 785 q 458 657 439 701 q 496 585 476 613 q 528 561 515 558 q 531 631 539 565 q 516 763 524 696 q 529 876 508 831 q 611 949 557 926 q 717 965 665 972 q 811 924 769 958 q 858 836 853 889 q 867 652 865 769 q 867 378 868 535 q 867 169 865 222 q 832 63 867 101 q 745 18 797 24 q 638 24 693 13 q 536 63 582 35 q 472 126 490 92 q 447 182 460 150 q 424 236 433 214 q 406 278 415 258 q 389 306 397 297 q 372 313 381 315 q 369 302 369 311 q 371 278 368 293 q 376 245 374 263 q 381 203 379 228 q 385 156 383 179 q 301 28 386 69 q 135 25 219 -11 q 25 199 32 72 z "},"Ñ":{"ha":896,"x_min":21,"x_max":868,"o":"m 25 199 q 24 278 22 228 q 28 358 26 328 q 34 435 31 388 q 40 507 38 482 q 39 636 43 571 q 29 738 35 701 q 27 811 24 774 q 49 876 31 849 q 115 941 75 918 q 197 965 154 964 q 279 951 239 965 q 351 901 319 936 q 397 819 382 867 q 424 743 408 785 q 458 657 439 701 q 496 585 476 613 q 528 561 515 558 q 531 631 539 565 q 516 763 524 696 q 529 876 508 831 q 611 949 557 926 q 717 965 665 972 q 811 924 769 958 q 858 836 853 889 q 867 652 865 769 q 867 378 868 535 q 867 169 865 222 q 832 63 867 101 q 745 18 797 24 q 638 24 693 13 q 536 63 582 35 q 472 126 490 92 q 447 182 460 150 q 424 236 433 214 q 406 278 415 258 q 389 306 397 297 q 372 313 381 315 q 369 302 369 311 q 371 278 368 293 q 376 245 374 263 q 381 203 379 228 q 385 156 383 179 q 301 28 386 69 q 135 25 219 -11 q 25 199 32 72 z "},"O":{"ha":954,"x_min":3,"x_max":946,"o":"m 478 -17 q 253 20 349 -17 q 103 124 158 57 q 26 282 49 192 q 13 482 3 372 q 40 667 22 589 q 91 811 57 746 q 176 915 125 876 q 302 971 226 953 q 478 982 378 989 q 832 842 719 964 q 943 482 944 721 q 918 276 943 364 q 853 133 893 188 q 751 44 813 78 q 625 -3 690 10 q 478 -17 560 -17 m 482 668 q 418 616 439 675 q 397 464 397 557 q 482 258 397 258 q 524 278 506 258 q 553 346 542 299 q 565 464 565 393 q 556 565 565 522 q 528 636 547 608 q 482 668 510 664 z "},"Ò":{"ha":954,"x_min":3,"x_max":946,"o":"m 478 -17 q 253 20 349 -17 q 103 124 158 57 q 26 282 49 192 q 13 482 3 372 q 40 667 22 589 q 91 811 57 746 q 176 915 125 876 q 302 971 226 953 q 478 982 378 989 q 832 842 719 964 q 943 482 944 721 q 918 276 943 364 q 853 133 893 188 q 751 44 813 78 q 625 -3 690 10 q 478 -17 560 -17 m 482 668 q 418 616 439 675 q 397 464 397 557 q 482 258 397 258 q 524 278 506 258 q 553 346 542 299 q 565 464 565 393 q 556 565 565 522 q 528 636 547 608 q 482 668 510 664 z "},"Ó":{"ha":954,"x_min":3,"x_max":946,"o":"m 478 -17 q 253 20 349 -17 q 103 124 158 57 q 26 282 49 192 q 13 482 3 372 q 40 667 22 589 q 91 811 57 746 q 176 915 125 876 q 302 971 226 953 q 478 982 378 989 q 832 842 719 964 q 943 482 944 721 q 918 276 943 364 q 853 133 893 188 q 751 44 813 78 q 625 -3 690 10 q 478 -17 560 -17 m 482 668 q 418 616 439 675 q 397 464 397 557 q 482 258 397 258 q 524 278 506 258 q 553 346 542 299 q 565 464 565 393 q 556 565 565 522 q 528 636 547 608 q 482 668 510 664 z "},"Ô":{"ha":954,"x_min":3,"x_max":946,"o":"m 478 -17 q 253 20 349 -17 q 103 124 158 57 q 26 282 49 192 q 13 482 3 372 q 40 667 22 589 q 91 811 57 746 q 176 915 125 876 q 302 971 226 953 q 478 982 378 989 q 832 842 719 964 q 943 482 944 721 q 918 276 943 364 q 853 133 893 188 q 751 44 813 78 q 625 -3 690 10 q 478 -17 560 -17 m 482 668 q 418 616 439 675 q 397 464 397 557 q 482 258 397 258 q 524 278 506 258 q 553 346 542 299 q 565 464 565 393 q 556 565 565 522 q 528 636 547 608 q 482 668 510 664 z "},"Õ":{"ha":954,"x_min":3,"x_max":946,"o":"m 478 -17 q 253 20 349 -17 q 103 124 158 57 q 26 282 49 192 q 13 482 3 372 q 40 667 22 589 q 91 811 57 746 q 176 915 125 876 q 302 971 226 953 q 478 982 378 989 q 832 842 719 964 q 943 482 944 721 q 918 276 943 364 q 853 133 893 188 q 751 44 813 78 q 625 -3 690 10 q 478 -17 560 -17 m 482 668 q 418 616 439 675 q 397 464 397 557 q 482 258 397 258 q 524 278 506 258 q 553 346 542 299 q 565 464 565 393 q 556 565 565 522 q 528 636 547 608 q 482 668 510 664 z "},"Ö":{"ha":954,"x_min":3,"x_max":946,"o":"m 478 -17 q 253 20 349 -17 q 103 124 158 57 q 26 282 49 192 q 13 482 3 372 q 40 667 22 589 q 91 811 57 746 q 176 915 125 876 q 302 971 226 953 q 478 982 378 989 q 832 842 719 964 q 943 482 944 721 q 918 276 943 364 q 853 133 893 188 q 751 44 813 78 q 625 -3 690 10 q 478 -17 560 -17 m 482 668 q 418 616 439 675 q 397 464 397 557 q 482 258 397 258 q 524 278 506 258 q 553 346 542 299 q 565 464 565 393 q 556 565 565 522 q 528 636 547 608 q 482 668 510 664 z "},"Ø":{"ha":954,"x_min":3,"x_max":946,"o":"m 478 -17 q 253 20 349 -17 q 103 124 158 57 q 26 282 49 192 q 13 482 3 372 q 40 667 22 589 q 91 811 57 746 q 176 915 125 876 q 302 971 226 953 q 478 982 378 989 q 832 842 719 964 q 943 482 944 721 q 918 276 943 364 q 853 133 893 188 q 751 44 813 78 q 625 -3 690 10 q 478 -17 560 -17 m 482 668 q 418 616 439 675 q 397 464 397 557 q 482 258 397 258 q 524 278 506 258 q 553 346 542 299 q 565 464 565 393 q 556 565 565 522 q 528 636 547 608 q 482 668 510 664 z "},"P":{"ha":831,"x_min":19,"x_max":833,"o":"m 33 158 q 31 538 43 272 q 28 840 19 804 q 160 967 49 931 q 439 988 272 1004 q 512 975 475 983 q 584 953 549 967 q 652 924 619 940 q 714 885 685 907 q 765 837 743 863 q 803 781 788 811 q 825 717 818 750 q 832 616 832 660 q 818 538 832 572 q 788 479 804 503 q 747 438 771 456 q 701 410 722 419 q 657 394 681 400 q 560 388 629 388 q 436 385 490 388 q 376 371 382 383 q 375 269 368 367 q 375 124 382 172 q 331 56 369 85 q 242 17 293 26 q 142 16 192 8 q 61 61 93 24 q 33 158 29 99 m 357 701 q 352 651 353 681 q 357 603 351 622 q 431 591 365 579 q 508 632 496 603 q 484 690 522 665 q 406 715 446 715 q 357 701 367 715 z "},"Q":{"ha":949,"x_min":6,"x_max":950,"o":"m 472 -17 q 289 14 371 -17 q 155 94 207 44 q 69 210 103 144 q 21 344 35 276 q 7 482 7 413 q 472 982 10 947 q 658 965 578 989 q 789 897 739 942 q 872 784 839 853 q 919 644 904 715 q 938 482 933 572 q 833 132 949 265 q 875 -3 875 51 q 838 -83 875 -46 q 749 -139 800 -121 q 643 -156 697 -157 q 560 -129 589 -154 q 501 -15 529 -103 q 472 -17 486 -17 m 476 668 q 447 665 460 668 q 426 656 435 663 q 410 642 417 649 q 401 620 404 635 q 395 596 397 606 q 392 567 393 586 q 392 535 392 547 q 392 500 392 524 q 392 464 392 476 q 476 258 392 258 q 518 278 500 258 q 548 346 536 299 q 560 464 560 393 q 539 611 560 554 q 476 668 518 668 z "},"R":{"ha":847,"x_min":21,"x_max":840,"o":"m 33 158 q 35 301 31 236 q 44 398 40 365 q 42 519 47 431 q 33 610 39 553 q 24 700 28 667 q 21 774 21 733 q 28 840 21 814 q 160 968 49 931 q 438 988 271 1006 q 524 976 485 983 q 608 955 564 968 q 689 921 653 942 q 756 872 725 900 q 806 805 786 844 q 833 717 826 765 q 832 618 840 663 q 806 547 824 574 q 765 500 789 521 q 722 470 742 479 q 684 455 703 461 q 665 447 665 449 q 666 433 658 443 q 692 408 674 424 q 732 372 711 392 q 776 322 753 353 q 814 260 800 292 q 826 188 829 224 q 808 119 822 153 q 765 63 793 86 q 706 28 738 40 q 638 21 675 15 q 568 50 601 26 q 501 122 532 78 q 453 209 471 167 q 420 290 435 251 q 394 351 406 329 q 375 371 383 374 q 369 351 368 368 q 374 308 369 333 q 385 249 379 282 q 393 185 390 217 q 392 124 396 153 q 349 56 386 85 q 260 17 311 26 q 158 16 208 8 q 72 61 108 24 q 33 158 36 99 m 365 701 q 359 653 358 682 q 365 603 360 624 q 433 589 372 575 q 507 632 494 603 q 506 671 515 653 q 475 699 496 689 q 431 715 454 710 q 390 716 408 719 q 365 701 371 713 z "},"S":{"ha":825,"x_min":-3,"x_max":825,"o":"m 478 -4 q 345 -10 413 -10 q 215 10 278 -10 q 105 61 153 29 q 28 151 57 93 q -1 285 -1 208 q 37 368 -1 335 q 122 410 75 401 q 214 411 169 419 q 269 378 258 403 q 315 309 289 336 q 385 278 342 282 q 457 290 433 274 q 475 340 481 306 q 427 382 472 361 q 315 424 382 403 q 224 458 247 446 q 108 555 138 501 q 89 692 78 608 q 147 834 100 772 q 258 933 193 896 q 646 928 439 1038 q 746 767 757 869 q 674 644 738 690 q 557 629 614 601 q 530 644 551 631 q 492 667 508 658 q 457 675 476 675 q 429 660 438 675 q 440 627 417 640 q 524 594 464 614 q 753 476 682 546 q 824 300 824 406 q 727 104 824 193 q 478 -4 631 15 z "},"T":{"ha":811,"x_min":-24,"x_max":825,"o":"m 61 665 q -4 741 15 667 q 6 887 -24 815 q 106 951 35 958 q 694 965 242 940 q 786 929 753 968 q 822 839 819 890 q 809 742 824 788 q 768 686 794 696 q 713 681 744 678 q 660 690 682 683 q 614 698 638 697 q 585 686 590 699 q 591 413 571 667 q 606 128 611 158 q 559 51 596 82 q 474 12 522 19 q 379 11 426 4 q 295 47 332 18 q 250 117 258 75 q 240 268 238 172 q 252 442 243 364 q 262 595 261 521 q 246 683 263 669 q 220 691 242 693 q 179 683 199 689 q 126 670 160 676 q 61 665 92 664 z "},"U":{"ha":888,"x_min":13,"x_max":872,"o":"m 411 -17 q 301 -3 356 -17 q 195 37 247 10 q 103 113 143 64 q 46 226 64 163 q 22 421 29 292 q 22 683 14 550 q 56 876 31 817 q 124 943 74 921 q 228 963 175 965 q 325 934 281 960 q 378 868 369 908 q 376 598 390 803 q 365 360 361 393 q 376 326 367 342 q 400 301 386 311 q 431 286 414 292 q 463 282 447 281 q 493 289 479 283 q 517 308 507 294 q 528 342 526 322 q 515 594 532 382 q 510 858 497 806 q 552 919 518 894 q 631 949 586 943 q 719 947 675 954 q 796 911 763 939 q 838 843 829 883 q 869 501 865 689 q 840 190 872 313 q 774 88 822 131 q 663 24 726 44 q 538 -7 599 3 q 411 -17 476 -17 z "},"Ù":{"ha":888,"x_min":13,"x_max":872,"o":"m 411 -17 q 301 -3 356 -17 q 195 37 247 10 q 103 113 143 64 q 46 226 64 163 q 22 421 29 292 q 22 683 14 550 q 56 876 31 817 q 124 943 74 921 q 228 963 175 965 q 325 934 281 960 q 378 868 369 908 q 376 598 390 803 q 365 360 361 393 q 376 326 367 342 q 400 301 386 311 q 431 286 414 292 q 463 282 447 281 q 493 289 479 283 q 517 308 507 294 q 528 342 526 322 q 515 594 532 382 q 510 858 497 806 q 552 919 518 894 q 631 949 586 943 q 719 947 675 954 q 796 911 763 939 q 838 843 829 883 q 869 501 865 689 q 840 190 872 313 q 774 88 822 131 q 663 24 726 44 q 538 -7 599 3 q 411 -17 476 -17 z "},"Ú":{"ha":888,"x_min":13,"x_max":872,"o":"m 411 -17 q 301 -3 356 -17 q 195 37 247 10 q 103 113 143 64 q 46 226 64 163 q 22 421 29 292 q 22 683 14 550 q 56 876 31 817 q 124 943 74 921 q 228 963 175 965 q 325 934 281 960 q 378 868 369 908 q 376 598 390 803 q 365 360 361 393 q 376 326 367 342 q 400 301 386 311 q 431 286 414 292 q 463 282 447 281 q 493 289 479 283 q 517 308 507 294 q 528 342 526 322 q 515 594 532 382 q 510 858 497 806 q 552 919 518 894 q 631 949 586 943 q 719 947 675 954 q 796 911 763 939 q 838 843 829 883 q 869 501 865 689 q 840 190 872 313 q 774 88 822 131 q 663 24 726 44 q 538 -7 599 3 q 411 -17 476 -17 z "},"Û":{"ha":888,"x_min":13,"x_max":872,"o":"m 411 -17 q 301 -3 356 -17 q 195 37 247 10 q 103 113 143 64 q 46 226 64 163 q 22 421 29 292 q 22 683 14 550 q 56 876 31 817 q 124 943 74 921 q 228 963 175 965 q 325 934 281 960 q 378 868 369 908 q 376 598 390 803 q 365 360 361 393 q 376 326 367 342 q 400 301 386 311 q 431 286 414 292 q 463 282 447 281 q 493 289 479 283 q 517 308 507 294 q 528 342 526 322 q 515 594 532 382 q 510 858 497 806 q 552 919 518 894 q 631 949 586 943 q 719 947 675 954 q 796 911 763 939 q 838 843 829 883 q 869 501 865 689 q 840 190 872 313 q 774 88 822 131 q 663 24 726 44 q 538 -7 599 3 q 411 -17 476 -17 z "},"Ü":{"ha":888,"x_min":13,"x_max":872,"o":"m 411 -17 q 301 -3 356 -17 q 195 37 247 10 q 103 113 143 64 q 46 226 64 163 q 22 421 29 292 q 22 683 14 550 q 56 876 31 817 q 124 943 74 921 q 228 963 175 965 q 325 934 281 960 q 378 868 369 908 q 376 598 390 803 q 365 360 361 393 q 376 326 367 342 q 400 301 386 311 q 431 286 414 292 q 463 282 447 281 q 493 289 479 283 q 517 308 507 294 q 528 342 526 322 q 515 594 532 382 q 510 858 497 806 q 552 919 518 894 q 631 949 586 943 q 719 947 675 954 q 796 911 763 939 q 838 843 829 883 q 869 501 865 689 q 840 190 872 313 q 774 88 822 131 q 663 24 726 44 q 538 -7 599 3 q 411 -17 476 -17 z "},"V":{"ha":871,"x_min":-4,"x_max":874,"o":"m 829 507 q 808 404 817 447 q 784 310 799 361 q 753 222 769 258 q 714 147 736 185 q 664 83 692 108 q 601 35 636 57 q 522 3 567 14 q 424 -7 476 -7 q 183 114 272 -7 q 39 488 93 235 q 8 832 -4 688 q 44 913 11 882 q 122 949 76 943 q 215 945 168 954 q 298 908 261 936 q 344 840 335 879 q 379 624 364 769 q 406 377 394 479 q 433 274 418 275 q 463 378 453 271 q 481 628 472 486 q 504 822 489 771 q 557 909 521 876 q 635 949 593 942 q 721 947 676 957 q 799 913 765 938 q 853 848 833 888 q 867 764 872 808 q 856 689 863 742 q 843 593 850 636 q 829 507 836 550 z "},"W":{"ha":1296,"x_min":14,"x_max":1282,"o":"m 644 147 q 547 33 611 74 q 408 -9 482 -7 q 263 8 335 -11 q 135 71 190 28 q 60 164 79 114 q 17 460 19 263 q 44 807 14 658 q 164 946 65 914 q 319 933 249 974 q 376 842 376 900 q 364 650 375 782 q 355 440 353 518 q 382 331 357 361 q 407 330 392 325 q 439 360 422 335 q 461 419 456 386 q 469 624 467 454 q 485 844 471 793 q 515 891 492 871 q 570 922 539 911 q 638 933 601 932 q 706 926 674 933 q 763 899 738 918 q 796 854 788 881 q 817 619 811 808 q 829 417 824 431 q 859 338 840 371 q 893 317 878 306 q 918 363 910 329 q 925 458 926 396 q 921 569 924 521 q 910 708 918 617 q 900 842 903 799 q 975 939 896 908 q 1149 936 1060 974 q 1258 799 1243 897 q 1274 450 1282 656 q 1235 156 1265 244 q 1158 51 1214 94 q 1028 -7 1101 7 q 881 -12 956 -21 q 742 38 807 -4 q 644 147 676 81 z "},"X":{"ha":875,"x_min":13,"x_max":867,"o":"m 854 796 q 835 675 857 732 q 784 587 813 618 q 732 531 756 556 q 709 497 708 506 q 727 467 710 489 q 769 415 744 446 q 816 344 793 383 q 852 248 839 304 q 860 132 865 192 q 817 51 856 83 q 728 12 779 18 q 627 15 678 6 q 542 63 576 25 q 508 154 508 100 q 489 283 510 222 q 439 343 468 344 q 390 281 408 342 q 376 164 371 221 q 293 21 385 64 q 121 17 210 -17 q 15 143 26 53 q 14 164 14 153 q 38 295 14 233 q 90 390 61 357 q 143 449 119 424 q 167 481 167 474 q 151 503 167 488 q 113 544 135 519 q 68 604 90 569 q 31 698 46 639 q 17 828 15 757 q 53 910 17 876 q 140 952 89 944 q 241 951 190 960 q 326 903 292 942 q 358 806 360 864 q 370 719 358 760 q 399 656 382 678 q 429 635 415 635 q 482 677 461 635 q 500 796 503 719 q 585 946 499 904 q 760 943 671 988 q 854 796 850 899 z "},"Y":{"ha":807,"x_min":-7,"x_max":814,"o":"m 468 842 q 501 923 467 889 q 584 967 535 957 q 683 969 633 976 q 771 928 733 963 q 813 842 808 894 q 810 801 813 826 q 802 752 807 775 q 792 700 797 729 q 783 656 786 671 q 744 565 776 615 q 676 477 711 514 q 604 405 640 440 q 563 363 568 369 q 556 308 553 349 q 563 219 558 267 q 558 113 568 171 q 513 42 549 67 q 433 16 478 17 q 347 28 389 15 q 278 70 306 40 q 254 136 251 100 q 231 365 275 346 q 92 494 165 394 q 11 694 19 594 q 4 751 8 721 q -3 796 0 781 q -5 828 -6 811 q 1 860 -4 846 q 60 926 19 900 q 147 958 101 953 q 236 956 193 964 q 307 919 279 949 q 335 847 335 890 q 334 802 335 832 q 333 751 333 772 q 333 701 332 729 q 337 654 333 674 q 347 617 340 635 q 367 588 354 599 q 396 576 379 578 q 443 606 425 574 q 465 683 461 639 q 469 773 468 728 q 468 842 471 818 z "},"Ý":{"ha":807,"x_min":-7,"x_max":814,"o":"m 468 842 q 501 923 467 889 q 584 967 535 957 q 683 969 633 976 q 771 928 733 963 q 813 842 808 894 q 810 801 813 826 q 802 752 807 775 q 792 700 797 729 q 783 656 786 671 q 744 565 776 615 q 676 477 711 514 q 604 405 640 440 q 563 363 568 369 q 556 308 553 349 q 563 219 558 267 q 558 113 568 171 q 513 42 549 67 q 433 16 478 17 q 347 28 389 15 q 278 70 306 40 q 254 136 251 100 q 231 365 275 346 q 92 494 165 394 q 11 694 19 594 q 4 751 8 721 q -3 796 0 781 q -5 828 -6 811 q 1 860 -4 846 q 60 926 19 900 q 147 958 101 953 q 236 956 193 964 q 307 919 279 949 q 335 847 335 890 q 334 802 335 832 q 333 751 333 772 q 333 701 332 729 q 337 654 333 674 q 347 617 340 635 q 367 588 354 599 q 396 576 379 578 q 443 606 425 574 q 465 683 461 639 q 469 773 468 728 q 468 842 471 818 z "},"Ÿ":{"ha":807,"x_min":-7,"x_max":814,"o":"m 468 842 q 501 923 467 889 q 584 967 535 957 q 683 969 633 976 q 771 928 733 963 q 813 842 808 894 q 810 801 813 826 q 802 752 807 775 q 792 700 797 729 q 783 656 786 671 q 744 565 776 615 q 676 477 711 514 q 604 405 640 440 q 563 363 568 369 q 556 308 553 349 q 563 219 558 267 q 558 113 568 171 q 513 42 549 67 q 433 16 478 17 q 347 28 389 15 q 278 70 306 40 q 254 136 251 100 q 231 365 275 346 q 92 494 165 394 q 11 694 19 594 q 4 751 8 721 q -3 796 0 781 q -5 828 -6 811 q 1 860 -4 846 q 60 926 19 900 q 147 958 101 953 q 236 956 193 964 q 307 919 279 949 q 335 847 335 890 q 334 802 335 832 q 333 751 333 772 q 333 701 332 729 q 337 654 333 674 q 347 617 340 635 q 367 588 354 599 q 396 576 379 578 q 443 606 425 574 q 465 683 461 639 q 469 773 468 728 q 468 842 471 818 z "},"Z":{"ha":853,"x_min":3,"x_max":846,"o":"m 751 313 q 826 233 806 294 q 821 110 846 172 q 733 25 796 47 q 595 5 688 10 q 426 3 503 0 q 240 11 349 6 q 110 18 132 17 q 38 51 64 19 q 8 128 11 83 q 10 218 4 172 q 33 297 17 264 q 78 349 42 317 q 164 414 115 381 q 267 484 213 447 q 365 550 321 521 q 438 601 410 579 q 463 629 465 624 q 384 651 450 651 q 161 629 318 651 q 53 700 83 619 q 60 865 24 779 q 192 964 101 961 l 218 961 q 501 954 325 947 q 726 942 678 961 q 792 894 765 931 q 829 810 819 857 q 839 715 839 764 q 829 629 839 667 q 765 539 818 592 q 655 444 711 486 q 554 367 599 403 q 511 319 510 331 q 545 301 514 303 q 616 306 576 299 q 694 315 656 313 q 751 313 733 318 z "},"[":{"ha":719,"x_min":25,"x_max":651,"o":"m 504 161 q 588 133 551 163 q 638 61 625 104 q 648 -26 650 18 q 617 -104 646 -69 q 540 -146 588 -139 q 451 -157 486 -153 q 366 -164 417 -161 q 278 -162 315 -167 q 201 -149 242 -158 q 129 -119 161 -140 q 75 -69 97 -99 q 36 22 46 -33 q 30 122 26 76 q 42 237 33 167 q 51 343 50 307 q 51 481 51 364 q 51 619 51 597 q 42 724 50 654 q 30 840 33 794 q 36 940 26 885 q 75 1031 46 994 q 145 1088 103 1067 q 229 1118 188 1110 q 332 1126 271 1126 q 434 1121 393 1125 q 540 1107 475 1117 q 617 1066 588 1100 q 648 988 646 1032 q 638 900 650 943 q 588 828 625 857 q 504 800 551 799 q 472 807 490 800 q 441 819 454 814 q 411 824 428 825 q 379 811 394 824 q 375 792 376 808 q 374 744 374 775 q 375 681 374 714 q 377 601 376 649 q 378 515 378 554 q 375 356 378 461 q 373 203 372 251 q 379 150 374 156 q 411 138 394 139 q 441 142 428 136 q 472 155 454 149 q 504 161 490 161 z "},"\\":{"ha":849,"x_min":65,"x_max":803,"o":"m 772 150 q 724 30 801 79 q 547 -3 647 -19 q 415 76 458 11 q 201 483 329 208 q 69 846 74 758 q 122 944 67 906 q 249 980 176 982 q 364 932 321 978 q 393 890 376 919 q 430 817 410 860 q 469 733 450 775 q 510 642 488 692 q 547 561 532 592 q 660 356 575 501 q 772 150 746 211 z "},"]":{"ha":719,"x_min":68,"x_max":693,"o":"m 668 619 q 667 481 667 599 q 668 343 667 364 q 678 237 669 307 q 690 122 686 167 q 683 23 693 78 q 644 -69 674 -32 q 574 -126 617 -104 q 489 -157 531 -149 q 387 -165 447 -165 q 285 -159 326 -164 q 179 -146 243 -154 q 101 -104 131 -139 q 70 -25 72 -69 q 81 63 68 19 q 131 134 94 106 q 215 161 167 163 q 247 155 229 161 q 278 143 265 149 q 308 138 290 138 q 339 151 325 139 q 347 203 346 156 q 344 356 347 251 q 342 515 342 461 q 344 650 342 569 q 345 769 346 731 q 339 811 344 807 q 308 824 325 824 q 278 819 290 825 q 247 808 265 814 q 215 800 229 801 q 131 828 167 800 q 81 900 94 857 q 70 988 68 943 q 101 1067 72 1032 q 179 1107 131 1101 q 285 1121 243 1117 q 387 1126 326 1125 q 489 1119 447 1128 q 574 1089 531 1111 q 644 1032 617 1067 q 683 940 674 994 q 690 840 693 885 q 678 725 686 796 q 668 619 669 654 z "},"^":{"ha":638,"x_min":13,"x_max":624,"o":"m 604 738 q 621 630 619 688 q 610 551 622 572 q 526 502 588 511 q 413 512 464 493 q 363 561 361 531 q 350 681 365 619 q 318 746 335 743 q 282 680 297 749 q 269 565 267 611 q 207 507 271 525 q 78 505 143 489 q 14 565 14 521 q 46 739 14 613 q 142 894 71 835 q 319 953 213 953 q 501 901 432 953 q 604 738 569 849 z "},"_":{"ha":844,"x_min":11,"x_max":842,"o":"m 778 165 q 828 118 817 160 q 813 34 840 76 q 725 -12 785 -8 q 99 -3 388 -36 q 33 30 56 3 q 12 88 11 57 q 31 144 13 118 q 78 175 49 171 q 417 188 188 190 q 778 165 646 185 z "},"`":{"ha":417,"x_min":13,"x_max":410,"o":"m 401 604 q 376 526 408 560 q 297 482 344 493 q 199 476 249 471 q 124 507 149 482 q 44 662 75 553 q 17 844 13 771 q 52 898 18 871 q 131 941 86 925 q 222 953 175 957 q 290 918 268 949 q 401 604 367 818 z "},"a":{"ha":847,"x_min":7,"x_max":826,"o":"m 815 661 q 818 392 811 592 q 825 169 825 192 q 797 83 825 121 q 724 28 768 46 q 635 3 681 10 q 550 3 589 -4 q 496 26 511 10 q 483 38 488 36 q 474 36 478 39 q 458 28 469 33 q 428 17 446 22 q 374 8 411 11 q 288 7 338 4 q 168 45 222 10 q 80 139 114 81 q 27 270 46 197 q 10 423 8 343 q 33 578 11 503 q 303 796 93 785 q 363 794 335 799 q 410 783 392 790 q 444 767 429 776 q 468 751 460 758 q 483 740 476 744 q 492 738 489 736 q 496 751 494 740 q 584 807 503 796 q 742 779 665 818 q 815 661 819 740 m 478 251 q 496 274 496 256 q 498 351 496 292 q 500 444 500 411 q 496 524 500 476 q 461 556 493 544 q 393 551 429 567 q 344 486 357 535 q 396 285 315 358 q 478 251 440 243 z "},"à":{"ha":847,"x_min":7,"x_max":826,"o":"m 815 661 q 818 392 811 592 q 825 169 825 192 q 797 83 825 121 q 724 28 768 46 q 635 3 681 10 q 550 3 589 -4 q 496 26 511 10 q 483 38 488 36 q 474 36 478 39 q 458 28 469 33 q 428 17 446 22 q 374 8 411 11 q 288 7 338 4 q 168 45 222 10 q 80 139 114 81 q 27 270 46 197 q 10 423 8 343 q 33 578 11 503 q 303 796 93 785 q 363 794 335 799 q 410 783 392 790 q 444 767 429 776 q 468 751 460 758 q 483 740 476 744 q 492 738 489 736 q 496 751 494 740 q 584 807 503 796 q 742 779 665 818 q 815 661 819 740 m 478 251 q 496 274 496 256 q 498 351 496 292 q 500 444 500 411 q 496 524 500 476 q 461 556 493 544 q 393 551 429 567 q 344 486 357 535 q 396 285 315 358 q 478 251 440 243 z "},"á":{"ha":847,"x_min":7,"x_max":826,"o":"m 815 661 q 818 392 811 592 q 825 169 825 192 q 797 83 825 121 q 724 28 768 46 q 635 3 681 10 q 550 3 589 -4 q 496 26 511 10 q 483 38 488 36 q 474 36 478 39 q 458 28 469 33 q 428 17 446 22 q 374 8 411 11 q 288 7 338 4 q 168 45 222 10 q 80 139 114 81 q 27 270 46 197 q 10 423 8 343 q 33 578 11 503 q 303 796 93 785 q 363 794 335 799 q 410 783 392 790 q 444 767 429 776 q 468 751 460 758 q 483 740 476 744 q 492 738 489 736 q 496 751 494 740 q 584 807 503 796 q 742 779 665 818 q 815 661 819 740 m 478 251 q 496 274 496 256 q 498 351 496 292 q 500 444 500 411 q 496 524 500 476 q 461 556 493 544 q 393 551 429 567 q 344 486 357 535 q 396 285 315 358 q 478 251 440 243 z "},"â":{"ha":847,"x_min":7,"x_max":826,"o":"m 815 661 q 818 392 811 592 q 825 169 825 192 q 797 83 825 121 q 724 28 768 46 q 635 3 681 10 q 550 3 589 -4 q 496 26 511 10 q 483 38 488 36 q 474 36 478 39 q 458 28 469 33 q 428 17 446 22 q 374 8 411 11 q 288 7 338 4 q 168 45 222 10 q 80 139 114 81 q 27 270 46 197 q 10 423 8 343 q 33 578 11 503 q 303 796 93 785 q 363 794 335 799 q 410 783 392 790 q 444 767 429 776 q 468 751 460 758 q 483 740 476 744 q 492 738 489 736 q 496 751 494 740 q 584 807 503 796 q 742 779 665 818 q 815 661 819 740 m 478 251 q 496 274 496 256 q 498 351 496 292 q 500 444 500 411 q 496 524 500 476 q 461 556 493 544 q 393 551 429 567 q 344 486 357 535 q 396 285 315 358 q 478 251 440 243 z "},"ã":{"ha":847,"x_min":7,"x_max":826,"o":"m 815 661 q 818 392 811 592 q 825 169 825 192 q 797 83 825 121 q 724 28 768 46 q 635 3 681 10 q 550 3 589 -4 q 496 26 511 10 q 483 38 488 36 q 474 36 478 39 q 458 28 469 33 q 428 17 446 22 q 374 8 411 11 q 288 7 338 4 q 168 45 222 10 q 80 139 114 81 q 27 270 46 197 q 10 423 8 343 q 33 578 11 503 q 303 796 93 785 q 363 794 335 799 q 410 783 392 790 q 444 767 429 776 q 468 751 460 758 q 483 740 476 744 q 492 738 489 736 q 496 751 494 740 q 584 807 503 796 q 742 779 665 818 q 815 661 819 740 m 478 251 q 496 274 496 256 q 498 351 496 292 q 500 444 500 411 q 496 524 500 476 q 461 556 493 544 q 393 551 429 567 q 344 486 357 535 q 396 285 315 358 q 478 251 440 243 z "},"ä":{"ha":847,"x_min":7,"x_max":826,"o":"m 815 661 q 818 392 811 592 q 825 169 825 192 q 797 83 825 121 q 724 28 768 46 q 635 3 681 10 q 550 3 589 -4 q 496 26 511 10 q 483 38 488 36 q 474 36 478 39 q 458 28 469 33 q 428 17 446 22 q 374 8 411 11 q 288 7 338 4 q 168 45 222 10 q 80 139 114 81 q 27 270 46 197 q 10 423 8 343 q 33 578 11 503 q 303 796 93 785 q 363 794 335 799 q 410 783 392 790 q 444 767 429 776 q 468 751 460 758 q 483 740 476 744 q 492 738 489 736 q 496 751 494 740 q 584 807 503 796 q 742 779 665 818 q 815 661 819 740 m 478 251 q 496 274 496 256 q 498 351 496 292 q 500 444 500 411 q 496 524 500 476 q 461 556 493 544 q 393 551 429 567 q 344 486 357 535 q 396 285 315 358 q 478 251 440 243 z "},"å":{"ha":847,"x_min":7,"x_max":826,"o":"m 815 661 q 818 392 811 592 q 825 169 825 192 q 797 83 825 121 q 724 28 768 46 q 635 3 681 10 q 550 3 589 -4 q 496 26 511 10 q 483 38 488 36 q 474 36 478 39 q 458 28 469 33 q 428 17 446 22 q 374 8 411 11 q 288 7 338 4 q 168 45 222 10 q 80 139 114 81 q 27 270 46 197 q 10 423 8 343 q 33 578 11 503 q 303 796 93 785 q 363 794 335 799 q 410 783 392 790 q 444 767 429 776 q 468 751 460 758 q 483 740 476 744 q 492 738 489 736 q 496 751 494 740 q 584 807 503 796 q 742 779 665 818 q 815 661 819 740 m 478 251 q 496 274 496 256 q 498 351 496 292 q 500 444 500 411 q 496 524 500 476 q 461 556 493 544 q 393 551 429 567 q 344 486 357 535 q 396 285 315 358 q 478 251 440 243 z "},"b":{"ha":851,"x_min":19,"x_max":846,"o":"m 811 622 q 842 467 839 551 q 823 306 844 383 q 765 163 801 229 q 676 55 729 97 q 565 6 624 13 q 477 1 515 0 q 420 7 439 1 q 386 19 401 13 q 367 31 371 25 q 357 38 364 36 q 347 33 350 39 q 267 0 321 6 q 161 8 214 -6 q 68 65 108 22 q 28 169 28 108 q 36 331 29 192 q 38 554 43 471 q 31 627 35 586 q 26 691 28 668 q 22 757 24 714 q 22 835 19 800 q 113 944 24 901 q 283 967 204 989 q 360 846 369 942 q 363 767 353 781 q 372 768 364 764 q 394 780 379 772 q 430 795 410 788 q 484 807 450 803 q 556 808 518 811 q 811 622 744 793 m 357 272 q 400 253 360 242 q 488 331 454 268 q 508 486 524 399 q 462 550 499 533 q 392 555 425 567 q 357 522 358 543 q 357 272 350 365 z "},"c":{"ha":814,"x_min":7,"x_max":817,"o":"m 561 340 q 624 367 581 364 q 712 356 668 371 q 786 302 756 342 q 810 208 817 263 q 806 182 808 193 q 796 150 804 171 q 775 113 788 129 q 739 76 763 96 q 685 43 715 57 q 606 17 654 29 q 499 1 558 6 q 290 19 383 -7 q 135 97 196 44 q 42 224 75 150 q 8 383 10 297 q 50 612 7 513 q 183 753 93 711 q 355 799 265 790 q 513 793 444 808 q 630 758 582 778 q 700 721 678 739 q 736 670 726 700 q 739 613 746 640 q 716 558 732 585 q 676 514 700 531 q 628 491 653 497 q 576 499 603 485 q 481 531 524 526 q 413 524 439 536 q 367 490 386 513 q 342 442 349 467 q 332 394 335 418 q 363 307 329 342 q 433 272 396 272 q 499 285 471 271 q 561 340 528 299 z "},"ç":{"ha":814,"x_min":7,"x_max":817,"o":"m 561 340 q 624 367 581 364 q 712 356 668 371 q 786 302 756 342 q 810 208 817 263 q 806 182 808 193 q 796 150 804 171 q 775 113 788 129 q 739 76 763 96 q 685 43 715 57 q 606 17 654 29 q 499 1 558 6 q 290 19 383 -7 q 135 97 196 44 q 42 224 75 150 q 8 383 10 297 q 50 612 7 513 q 183 753 93 711 q 355 799 265 790 q 513 793 444 808 q 630 758 582 778 q 700 721 678 739 q 736 670 726 700 q 739 613 746 640 q 716 558 732 585 q 676 514 700 531 q 628 491 653 497 q 576 499 603 485 q 481 531 524 526 q 413 524 439 536 q 367 490 386 513 q 342 442 349 467 q 332 394 335 418 q 363 307 329 342 q 433 272 396 272 q 499 285 471 271 q 561 340 528 299 z "},"d":{"ha":847,"x_min":8,"x_max":828,"o":"m 810 554 q 807 449 806 508 q 810 349 808 390 q 815 255 813 307 q 818 169 818 203 q 777 65 818 108 q 681 8 736 22 q 570 -2 625 -7 q 489 28 515 3 q 474 32 481 35 q 450 19 467 29 q 394 6 433 10 q 282 7 354 1 q 163 50 217 13 q 76 147 110 88 q 26 278 43 206 q 11 432 8 351 q 35 588 14 513 q 75 681 51 642 q 123 744 99 721 q 181 781 147 767 q 242 801 215 796 q 306 808 269 806 q 359 807 333 810 q 402 799 385 804 q 435 785 419 793 q 463 772 451 778 q 481 763 474 767 q 494 759 489 758 q 503 767 500 760 q 505 778 504 772 q 506 790 506 785 q 506 807 506 796 q 506 829 506 818 q 539 922 506 886 q 619 965 572 958 q 711 963 665 972 q 790 924 757 954 q 825 854 824 893 q 824 755 826 801 q 817 648 822 708 q 810 554 811 588 m 489 274 q 492 330 489 283 q 495 402 494 376 q 494 464 496 428 q 489 524 493 500 q 454 554 486 543 q 386 549 422 565 q 339 486 350 533 q 388 285 308 358 q 471 251 433 243 q 489 274 489 256 z "},"e":{"ha":793,"x_min":6,"x_max":799,"o":"m 349 286 q 340 264 322 285 q 418 232 367 233 q 451 236 436 232 q 621 204 551 265 q 664 93 676 154 q 532 -3 646 17 q 499 -7 517 -6 q 126 76 246 -29 q 8 421 7 181 q 66 623 10 538 q 219 753 122 708 q 317 787 268 775 q 405 801 365 799 q 484 797 444 803 q 551 783 524 792 q 608 763 579 775 q 652 741 638 750 q 682 721 667 732 q 767 607 738 685 q 791 451 797 529 q 743 335 785 372 q 628 290 704 300 q 457 283 553 279 q 349 286 361 288 m 450 561 q 365 525 403 556 q 357 492 340 506 q 474 476 379 472 q 576 499 568 481 q 563 537 588 521 q 504 558 538 553 q 450 561 471 563 z "},"è":{"ha":793,"x_min":6,"x_max":799,"o":"m 349 286 q 340 264 322 285 q 418 232 367 233 q 451 236 436 232 q 621 204 551 265 q 664 93 676 154 q 532 -3 646 17 q 499 -7 517 -6 q 126 76 246 -29 q 8 421 7 181 q 66 623 10 538 q 219 753 122 708 q 317 787 268 775 q 405 801 365 799 q 484 797 444 803 q 551 783 524 792 q 608 763 579 775 q 652 741 638 750 q 682 721 667 732 q 767 607 738 685 q 791 451 797 529 q 743 335 785 372 q 628 290 704 300 q 457 283 553 279 q 349 286 361 288 m 450 561 q 365 525 403 556 q 357 492 340 506 q 474 476 379 472 q 576 499 568 481 q 563 537 588 521 q 504 558 538 553 q 450 561 471 563 z "},"é":{"ha":793,"x_min":6,"x_max":799,"o":"m 349 286 q 340 264 322 285 q 418 232 367 233 q 451 236 436 232 q 621 204 551 265 q 664 93 676 154 q 532 -3 646 17 q 499 -7 517 -6 q 126 76 246 -29 q 8 421 7 181 q 66 623 10 538 q 219 753 122 708 q 317 787 268 775 q 405 801 365 799 q 484 797 444 803 q 551 783 524 792 q 608 763 579 775 q 652 741 638 750 q 682 721 667 732 q 767 607 738 685 q 791 451 797 529 q 743 335 785 372 q 628 290 704 300 q 457 283 553 279 q 349 286 361 288 m 450 561 q 365 525 403 556 q 357 492 340 506 q 474 476 379 472 q 576 499 568 481 q 563 537 588 521 q 504 558 538 553 q 450 561 471 563 z "},"ê":{"ha":793,"x_min":6,"x_max":799,"o":"m 349 286 q 340 264 322 285 q 418 232 367 233 q 451 236 436 232 q 621 204 551 265 q 664 93 676 154 q 532 -3 646 17 q 499 -7 517 -6 q 126 76 246 -29 q 8 421 7 181 q 66 623 10 538 q 219 753 122 708 q 317 787 268 775 q 405 801 365 799 q 484 797 444 803 q 551 783 524 792 q 608 763 579 775 q 652 741 638 750 q 682 721 667 732 q 767 607 738 685 q 791 451 797 529 q 743 335 785 372 q 628 290 704 300 q 457 283 553 279 q 349 286 361 288 m 450 561 q 365 525 403 556 q 357 492 340 506 q 474 476 379 472 q 576 499 568 481 q 563 537 588 521 q 504 558 538 553 q 450 561 471 563 z "},"ë":{"ha":793,"x_min":6,"x_max":799,"o":"m 349 286 q 340 264 322 285 q 418 232 367 233 q 451 236 436 232 q 621 204 551 265 q 664 93 676 154 q 532 -3 646 17 q 499 -7 517 -6 q 126 76 246 -29 q 8 421 7 181 q 66 623 10 538 q 219 753 122 708 q 317 787 268 775 q 405 801 365 799 q 484 797 444 803 q 551 783 524 792 q 608 763 579 775 q 652 741 638 750 q 682 721 667 732 q 767 607 738 685 q 791 451 797 529 q 743 335 785 372 q 628 290 704 300 q 457 283 553 279 q 349 286 361 288 m 450 561 q 365 525 403 556 q 357 492 340 506 q 474 476 379 472 q 576 499 568 481 q 563 537 588 521 q 504 558 538 553 q 450 561 471 563 z "},"f":{"ha":725,"x_min":-11,"x_max":744,"o":"m 733 819 q 719 712 743 758 q 658 649 696 665 q 576 642 619 632 q 508 694 533 653 q 479 715 496 713 q 451 690 463 717 q 445 644 446 679 q 450 588 444 610 q 460 573 453 575 q 477 575 468 571 q 499 581 486 579 q 524 581 511 583 q 587 531 567 567 q 602 458 607 496 q 575 388 597 421 q 519 343 553 354 q 492 340 504 339 q 471 345 479 342 q 456 347 463 349 q 447 336 450 346 q 443 283 443 317 q 445 206 443 250 q 447 144 447 161 q 414 69 447 101 q 332 26 381 36 q 235 22 283 17 q 153 61 188 26 q 118 151 118 96 q 115 353 115 338 q 101 371 115 368 q 67 370 86 374 q 43 369 47 367 q 2 434 15 383 q 5 531 -11 485 q 63 576 21 576 q 82 572 67 576 q 108 567 97 567 q 118 576 118 567 q 119 638 118 590 q 122 708 119 685 q 133 771 125 732 q 161 844 142 810 q 211 910 181 878 q 316 973 251 953 q 449 988 381 993 q 578 963 517 982 q 683 904 640 943 q 733 819 725 865 z "},"g":{"ha":842,"x_min":7,"x_max":819,"o":"m 496 744 q 566 792 513 778 q 676 799 619 807 q 775 753 732 792 q 815 656 818 715 q 807 -57 807 524 q 746 -259 807 -189 q 572 -339 685 -329 q 303 -319 460 -349 q 203 -267 236 -306 q 174 -185 171 -228 q 201 -105 176 -143 q 264 -54 226 -67 q 324 -52 292 -46 q 383 -70 357 -58 q 436 -90 410 -82 q 478 -90 463 -97 q 500 -60 494 -83 q 503 -17 506 -37 q 496 11 501 4 q 481 19 490 18 q 456 16 472 19 q 420 8 440 13 q 365 1 400 3 q 288 0 329 -1 q 168 40 222 4 q 80 135 114 76 q 27 265 46 193 q 10 417 8 338 q 33 572 11 497 q 63 646 44 613 q 102 701 81 679 q 147 740 124 724 q 198 767 171 757 q 250 782 225 776 q 303 790 275 788 q 349 792 328 793 q 388 788 371 792 q 419 780 406 785 q 444 770 433 775 q 462 760 454 765 q 475 750 469 754 q 485 743 481 746 q 492 741 489 740 q 496 744 494 742 m 496 268 q 505 396 506 322 q 496 518 504 469 q 460 549 492 538 q 392 544 428 560 q 344 481 356 528 q 390 279 315 351 q 474 246 435 236 q 496 268 492 250 z "},"h":{"ha":858,"x_min":19,"x_max":847,"o":"m 811 568 q 830 383 825 433 q 840 255 835 333 q 842 142 846 176 q 829 92 839 108 q 756 42 807 60 q 653 26 706 24 q 556 60 600 29 q 504 149 513 92 q 500 271 499 200 q 504 404 501 342 l 508 467 q 425 539 492 538 q 361 514 379 540 q 357 504 358 508 q 355 406 353 467 q 362 289 357 346 q 364 173 367 232 q 346 81 361 114 q 277 27 329 43 q 169 20 225 11 q 71 68 114 29 q 28 168 28 107 q 36 350 29 186 q 38 599 43 514 q 29 682 35 638 q 22 763 24 726 q 22 853 19 800 q 107 950 24 917 q 271 953 194 983 q 342 828 353 919 q 353 749 333 765 q 383 753 363 740 q 440 785 403 767 q 515 806 476 804 q 594 807 556 806 q 668 796 632 808 q 733 760 704 783 q 783 688 763 738 q 811 568 804 639 z "},"i":{"ha":407,"x_min":14,"x_max":403,"o":"m 338 683 q 380 390 357 618 q 379 111 403 163 q 319 51 363 75 q 226 22 276 26 q 128 28 175 18 q 49 69 81 38 q 17 149 17 101 q 30 278 17 200 q 42 397 43 357 q 40 471 42 414 q 39 555 39 528 q 43 621 39 582 q 56 683 47 660 q 139 754 75 738 q 263 749 203 771 q 338 683 324 728 m 213 815 q 180 814 206 815 q 140 813 154 813 q 102 817 125 814 q 66 826 79 819 q 41 848 53 833 q 25 883 29 863 q 52 997 15 949 q 151 1046 89 1044 q 215 1040 182 1047 q 282 1007 247 1032 q 328 944 317 982 q 306 851 346 886 q 213 815 265 815 z "},"ì":{"ha":407,"x_min":14,"x_max":403,"o":"m 338 683 q 380 390 357 618 q 379 111 403 163 q 319 51 363 75 q 226 22 276 26 q 128 28 175 18 q 49 69 81 38 q 17 149 17 101 q 30 278 17 200 q 42 397 43 357 q 40 471 42 414 q 39 555 39 528 q 43 621 39 582 q 56 683 47 660 q 139 754 75 738 q 263 749 203 771 q 338 683 324 728 m 213 815 q 180 814 206 815 q 140 813 154 813 q 102 817 125 814 q 66 826 79 819 q 41 848 53 833 q 25 883 29 863 q 52 997 15 949 q 151 1046 89 1044 q 215 1040 182 1047 q 282 1007 247 1032 q 328 944 317 982 q 306 851 346 886 q 213 815 265 815 z "},"í":{"ha":407,"x_min":14,"x_max":403,"o":"m 338 683 q 380 390 357 618 q 379 111 403 163 q 319 51 363 75 q 226 22 276 26 q 128 28 175 18 q 49 69 81 38 q 17 149 17 101 q 30 278 17 200 q 42 397 43 357 q 40 471 42 414 q 39 555 39 528 q 43 621 39 582 q 56 683 47 660 q 139 754 75 738 q 263 749 203 771 q 338 683 324 728 m 213 815 q 180 814 206 815 q 140 813 154 813 q 102 817 125 814 q 66 826 79 819 q 41 848 53 833 q 25 883 29 863 q 52 997 15 949 q 151 1046 89 1044 q 215 1040 182 1047 q 282 1007 247 1032 q 328 944 317 982 q 306 851 346 886 q 213 815 265 815 z "},"î":{"ha":407,"x_min":14,"x_max":403,"o":"m 338 683 q 380 390 357 618 q 379 111 403 163 q 319 51 363 75 q 226 22 276 26 q 128 28 175 18 q 49 69 81 38 q 17 149 17 101 q 30 278 17 200 q 42 397 43 357 q 40 471 42 414 q 39 555 39 528 q 43 621 39 582 q 56 683 47 660 q 139 754 75 738 q 263 749 203 771 q 338 683 324 728 m 213 815 q 180 814 206 815 q 140 813 154 813 q 102 817 125 814 q 66 826 79 819 q 41 848 53 833 q 25 883 29 863 q 52 997 15 949 q 151 1046 89 1044 q 215 1040 182 1047 q 282 1007 247 1032 q 328 944 317 982 q 306 851 346 886 q 213 815 265 815 z "},"ï":{"ha":407,"x_min":14,"x_max":403,"o":"m 338 683 q 380 390 357 618 q 379 111 403 163 q 319 51 363 75 q 226 22 276 26 q 128 28 175 18 q 49 69 81 38 q 17 149 17 101 q 30 278 17 200 q 42 397 43 357 q 40 471 42 414 q 39 555 39 528 q 43 621 39 582 q 56 683 47 660 q 139 754 75 738 q 263 749 203 771 q 338 683 324 728 m 213 815 q 180 814 206 815 q 140 813 154 813 q 102 817 125 814 q 66 826 79 819 q 41 848 53 833 q 25 883 29 863 q 52 997 15 949 q 151 1046 89 1044 q 215 1040 182 1047 q 282 1007 247 1032 q 328 944 317 982 q 306 851 346 886 q 213 815 265 815 z "},"j":{"ha":383,"x_min":-161,"x_max":364,"o":"m 360 -58 q 353 -169 363 -124 q 319 -249 344 -214 q 249 -301 293 -285 q 136 -325 204 -318 q -28 -321 68 -332 q -144 -221 -125 -311 q -121 -87 -161 -149 q -29 -56 -81 -29 q 6 -72 -7 -68 q 31 -69 18 -75 q 47 -36 43 -62 q 49 39 51 -10 q 37 209 46 94 q 24 394 28 324 q 25 551 21 464 q 49 694 29 638 q 110 753 60 732 q 215 774 161 775 q 312 739 269 772 q 350 644 354 706 q 351 320 346 568 q 360 -58 356 72 m 229 815 q 197 814 222 815 q 156 813 171 813 q 119 817 142 814 q 83 826 96 819 q 58 848 69 833 q 43 883 46 863 q 69 997 32 949 q 168 1046 106 1044 q 231 1040 199 1047 q 299 1007 264 1032 q 344 944 333 982 q 322 851 363 886 q 229 815 282 815 z "},"k":{"ha":847,"x_min":14,"x_max":843,"o":"m 821 536 q 753 490 794 506 q 683 466 713 474 q 649 445 653 458 q 672 402 646 432 q 739 324 697 372 q 801 232 781 276 q 816 157 822 192 q 789 93 810 122 q 733 47 768 64 q 660 22 697 29 q 582 24 622 15 q 511 60 542 33 q 459 130 488 81 q 407 221 431 179 q 364 271 383 263 q 356 269 358 275 q 353 247 353 263 q 356 216 354 232 q 360 176 358 200 q 363 133 363 151 q 292 35 364 71 q 135 25 213 -7 q 35 206 38 65 q 40 349 33 243 q 40 528 47 456 q 31 616 36 565 q 22 692 25 667 q 17 760 18 718 q 22 821 15 801 q 65 903 31 867 q 144 953 100 939 q 233 966 189 968 q 314 934 278 964 q 361 853 350 904 q 370 779 368 821 q 370 703 372 738 q 367 637 368 668 q 367 588 365 606 q 374 571 368 571 q 408 596 385 571 q 456 652 431 621 q 530 716 482 683 q 631 760 578 749 q 709 757 669 769 q 776 719 749 744 q 824 660 804 693 q 842 594 843 626 q 821 536 840 561 z "},"l":{"ha":404,"x_min":19,"x_max":382,"o":"m 363 557 q 367 422 363 500 q 376 291 372 344 q 378 182 381 238 q 361 93 375 126 q 303 40 347 58 q 210 25 260 22 q 116 56 161 28 q 56 135 71 85 q 24 519 28 229 q 56 879 19 808 q 160 958 94 939 q 282 957 225 976 q 359 892 339 938 q 381 799 379 847 q 373 678 382 751 q 363 557 364 604 z "},"m":{"ha":1336,"x_min":17,"x_max":1324,"o":"m 1294 569 q 1319 255 1322 392 q 1290 81 1315 118 q 1219 32 1269 47 q 1117 22 1169 17 q 1022 60 1065 26 q 971 150 978 93 q 967 195 968 168 q 965 251 965 222 q 966 310 965 279 q 968 367 967 340 q 971 414 969 393 q 974 447 972 435 l 974 460 q 942 512 965 494 q 895 528 919 529 q 850 513 871 528 q 825 471 829 497 q 819 307 815 400 q 827 172 822 214 q 819 94 832 131 q 749 40 797 61 q 651 15 701 18 q 558 39 600 11 q 508 122 515 67 q 503 250 503 175 q 508 393 504 325 l 511 460 q 480 513 503 497 q 433 523 457 528 q 388 498 408 518 q 361 451 367 478 q 366 288 353 407 q 368 104 379 169 q 327 48 363 71 q 243 22 292 25 q 147 28 194 18 q 63 76 99 39 q 22 169 28 114 q 28 439 17 233 q 40 658 40 644 q 122 794 39 763 q 287 803 204 826 q 365 750 369 779 q 372 756 368 751 q 391 769 376 760 q 424 785 406 778 q 474 798 443 792 q 542 804 506 804 q 618 799 583 804 q 673 785 653 793 q 707 769 693 778 q 726 756 721 761 l 731 750 q 789 785 744 771 q 892 805 833 800 q 1016 799 950 810 q 1140 763 1082 788 q 1240 688 1197 739 q 1294 569 1283 638 z "},"n":{"ha":857,"x_min":18,"x_max":844,"o":"m 814 571 q 840 338 836 439 q 835 185 843 236 q 810 108 826 133 q 742 58 789 76 q 646 40 694 39 q 556 73 597 42 q 507 160 515 104 q 502 280 501 211 q 507 410 503 349 l 511 471 q 488 515 504 500 q 452 529 471 529 q 414 522 433 529 q 380 503 394 515 q 360 479 365 490 q 345 403 347 450 q 348 312 343 357 q 355 213 353 267 q 350 114 357 158 q 327 72 346 90 q 281 43 308 53 q 222 30 254 33 q 157 35 189 26 q 98 60 125 44 q 53 108 71 76 q 31 181 35 139 q 35 339 26 242 q 43 453 43 436 q 30 581 40 504 q 21 696 19 658 q 109 794 26 771 q 271 798 192 817 q 347 751 350 779 q 362 758 353 754 q 399 772 371 761 q 454 789 426 782 q 521 800 482 796 q 594 801 560 804 q 665 785 628 799 q 730 746 701 771 q 781 676 758 721 q 814 571 804 632 z "},"ñ":{"ha":857,"x_min":18,"x_max":844,"o":"m 814 571 q 840 338 836 439 q 835 185 843 236 q 810 108 826 133 q 742 58 789 76 q 646 40 694 39 q 556 73 597 42 q 507 160 515 104 q 502 280 501 211 q 507 410 503 349 l 511 471 q 488 515 504 500 q 452 529 471 529 q 414 522 433 529 q 380 503 394 515 q 360 479 365 490 q 345 403 347 450 q 348 312 343 357 q 355 213 353 267 q 350 114 357 158 q 327 72 346 90 q 281 43 308 53 q 222 30 254 33 q 157 35 189 26 q 98 60 125 44 q 53 108 71 76 q 31 181 35 139 q 35 339 26 242 q 43 453 43 436 q 30 581 40 504 q 21 696 19 658 q 109 794 26 771 q 271 798 192 817 q 347 751 350 779 q 362 758 353 754 q 399 772 371 761 q 454 789 426 782 q 521 800 482 796 q 594 801 560 804 q 665 785 628 799 q 730 746 701 771 q 781 676 758 721 q 814 571 804 632 z "},"o":{"ha":885,"x_min":7,"x_max":875,"o":"m 442 801 q 644 772 558 801 q 780 689 731 743 q 851 568 829 635 q 874 418 874 501 q 772 101 874 207 q 442 -3 669 -4 q 269 21 344 -3 q 144 84 193 44 q 65 178 96 124 q 21 292 33 233 q 8 418 8 350 q 30 565 8 500 q 90 675 51 631 q 183 748 128 719 q 302 789 239 776 q 442 801 365 801 m 514 419 q 497 523 519 488 q 438 558 474 558 q 361 419 375 558 q 374 299 354 354 q 438 243 394 243 q 469 255 456 244 q 490 278 483 265 q 502 317 497 292 q 509 358 507 342 q 514 404 511 374 q 514 419 514 414 z "},"ò":{"ha":885,"x_min":7,"x_max":875,"o":"m 442 801 q 644 772 558 801 q 780 689 731 743 q 851 568 829 635 q 874 418 874 501 q 772 101 874 207 q 442 -3 669 -4 q 269 21 344 -3 q 144 84 193 44 q 65 178 96 124 q 21 292 33 233 q 8 418 8 350 q 30 565 8 500 q 90 675 51 631 q 183 748 128 719 q 302 789 239 776 q 442 801 365 801 m 514 419 q 497 523 519 488 q 438 558 474 558 q 361 419 375 558 q 374 299 354 354 q 438 243 394 243 q 469 255 456 244 q 490 278 483 265 q 502 317 497 292 q 509 358 507 342 q 514 404 511 374 q 514 419 514 414 z "},"ó":{"ha":885,"x_min":7,"x_max":875,"o":"m 442 801 q 644 772 558 801 q 780 689 731 743 q 851 568 829 635 q 874 418 874 501 q 772 101 874 207 q 442 -3 669 -4 q 269 21 344 -3 q 144 84 193 44 q 65 178 96 124 q 21 292 33 233 q 8 418 8 350 q 30 565 8 500 q 90 675 51 631 q 183 748 128 719 q 302 789 239 776 q 442 801 365 801 m 514 419 q 497 523 519 488 q 438 558 474 558 q 361 419 375 558 q 374 299 354 354 q 438 243 394 243 q 469 255 456 244 q 490 278 483 265 q 502 317 497 292 q 509 358 507 342 q 514 404 511 374 q 514 419 514 414 z "},"ô":{"ha":885,"x_min":7,"x_max":875,"o":"m 442 801 q 644 772 558 801 q 780 689 731 743 q 851 568 829 635 q 874 418 874 501 q 772 101 874 207 q 442 -3 669 -4 q 269 21 344 -3 q 144 84 193 44 q 65 178 96 124 q 21 292 33 233 q 8 418 8 350 q 30 565 8 500 q 90 675 51 631 q 183 748 128 719 q 302 789 239 776 q 442 801 365 801 m 514 419 q 497 523 519 488 q 438 558 474 558 q 361 419 375 558 q 374 299 354 354 q 438 243 394 243 q 469 255 456 244 q 490 278 483 265 q 502 317 497 292 q 509 358 507 342 q 514 404 511 374 q 514 419 514 414 z "},"õ":{"ha":885,"x_min":7,"x_max":875,"o":"m 442 801 q 644 772 558 801 q 780 689 731 743 q 851 568 829 635 q 874 418 874 501 q 772 101 874 207 q 442 -3 669 -4 q 269 21 344 -3 q 144 84 193 44 q 65 178 96 124 q 21 292 33 233 q 8 418 8 350 q 30 565 8 500 q 90 675 51 631 q 183 748 128 719 q 302 789 239 776 q 442 801 365 801 m 514 419 q 497 523 519 488 q 438 558 474 558 q 361 419 375 558 q 374 299 354 354 q 438 243 394 243 q 469 255 456 244 q 490 278 483 265 q 502 317 497 292 q 509 358 507 342 q 514 404 511 374 q 514 419 514 414 z "},"ö":{"ha":885,"x_min":7,"x_max":875,"o":"m 442 801 q 644 772 558 801 q 780 689 731 743 q 851 568 829 635 q 874 418 874 501 q 772 101 874 207 q 442 -3 669 -4 q 269 21 344 -3 q 144 84 193 44 q 65 178 96 124 q 21 292 33 233 q 8 418 8 350 q 30 565 8 500 q 90 675 51 631 q 183 748 128 719 q 302 789 239 776 q 442 801 365 801 m 514 419 q 497 523 519 488 q 438 558 474 558 q 361 419 375 558 q 374 299 354 354 q 438 243 394 243 q 469 255 456 244 q 490 278 483 265 q 502 317 497 292 q 509 358 507 342 q 514 404 511 374 q 514 419 514 414 z "},"ø":{"ha":885,"x_min":7,"x_max":875,"o":"m 442 801 q 644 772 558 801 q 780 689 731 743 q 851 568 829 635 q 874 418 874 501 q 772 101 874 207 q 442 -3 669 -4 q 269 21 344 -3 q 144 84 193 44 q 65 178 96 124 q 21 292 33 233 q 8 418 8 350 q 30 565 8 500 q 90 675 51 631 q 183 748 128 719 q 302 789 239 776 q 442 801 365 801 m 514 419 q 497 523 519 488 q 438 558 474 558 q 361 419 375 558 q 374 299 354 354 q 438 243 394 243 q 469 255 456 244 q 490 278 483 265 q 502 317 497 292 q 509 358 507 342 q 514 404 511 374 q 514 419 514 414 z "},"p":{"ha":863,"x_min":22,"x_max":853,"o":"m 575 796 q 737 728 672 786 q 827 585 801 671 q 851 402 853 500 q 821 207 849 304 q 775 106 804 147 q 713 44 746 64 q 641 13 679 24 q 566 4 603 1 q 493 10 529 7 q 429 21 457 13 q 381 29 401 29 q 354 26 360 29 q 345 -10 346 19 q 348 -72 344 -39 q 356 -146 351 -106 q 360 -206 360 -186 q 333 -299 360 -264 q 267 -340 307 -333 q 184 -335 226 -346 q 104 -297 142 -325 q 49 -231 67 -268 q 26 -4 28 -186 q 31 401 24 178 q 38 633 38 624 q 77 737 38 694 q 170 794 117 779 q 280 801 224 808 q 367 767 336 794 q 374 771 369 768 q 397 781 379 774 q 438 792 415 789 q 496 799 460 796 q 575 796 532 803 m 518 371 q 454 544 526 506 q 381 543 411 568 q 367 521 369 535 q 357 397 358 463 q 367 271 356 332 q 415 244 374 244 q 501 306 474 246 q 518 371 515 333 z "},"q":{"ha":854,"x_min":-26,"x_max":861,"o":"m 842 -204 q 781 -324 861 -286 q 615 -329 704 -360 q 508 -210 519 -296 l 507 -190 q 508 -144 507 -176 q 510 -85 510 -111 q 510 -31 511 -58 q 502 10 508 -4 q 486 24 496 25 q 446 13 476 22 q 385 -2 415 4 q 315 -13 356 -8 q 236 -8 274 -18 q 162 22 199 1 q 95 90 125 43 q 46 204 65 136 q 46 623 -26 463 q 292 794 118 783 q 372 794 338 796 q 430 787 406 792 q 469 777 454 782 q 493 768 485 772 l 500 764 q 587 799 531 792 q 697 791 643 806 q 790 734 750 776 q 829 631 829 692 q 824 485 829 611 q 817 244 819 358 q 820 -2 815 131 q 842 -204 825 -135 m 500 268 q 500 518 514 375 q 464 551 497 543 q 378 511 411 565 q 349 386 350 467 q 419 239 349 264 q 489 250 463 225 q 500 268 499 258 z "},"r":{"ha":742,"x_min":18,"x_max":764,"o":"m 631 785 q 746 632 763 733 q 664 511 735 561 q 549 489 597 465 q 472 518 507 508 q 412 527 436 528 q 371 519 388 526 q 348 499 354 511 q 344 469 342 486 q 362 311 358 400 q 351 114 365 222 q 313 59 346 82 q 236 32 281 36 q 148 38 192 28 q 72 86 104 49 q 33 181 39 124 q 26 437 28 243 q 24 650 25 631 q 135 796 18 764 q 303 790 222 821 q 350 751 347 774 q 364 760 354 754 q 403 779 374 767 q 465 799 433 792 q 542 803 496 806 q 631 785 588 801 z "},"s":{"ha":779,"x_min":-4,"x_max":775,"o":"m 501 494 q 633 452 578 479 q 719 389 689 425 q 762 316 749 353 q 775 236 775 279 q 722 110 775 164 q 583 31 668 57 q 390 3 499 4 q 269 4 321 1 q 163 19 217 7 q 74 51 108 31 q 19 109 40 72 q -3 197 -3 146 q 20 256 -3 229 q 77 295 43 282 q 145 314 111 308 q 205 315 179 319 q 235 299 231 311 q 265 268 240 282 q 324 251 290 254 q 418 286 400 247 q 410 303 422 294 q 374 322 399 313 q 322 340 349 331 q 260 360 294 349 q 201 383 225 372 q 146 419 168 399 q 113 463 124 440 q 99 513 103 485 q 96 563 94 540 q 103 613 97 585 q 254 794 125 740 q 372 817 296 813 q 512 815 449 821 q 606 801 575 810 q 714 685 704 775 q 675 561 722 611 q 588 539 635 515 q 460 553 507 578 q 451 517 431 538 q 501 494 465 501 z "},"t":{"ha":775,"x_min":-18,"x_max":790,"o":"m 581 328 q 676 356 626 369 q 758 278 726 343 q 769 147 790 214 q 713 67 757 103 q 607 16 668 32 q 480 -1 546 0 q 351 19 414 -3 q 247 85 289 42 q 192 183 210 124 q 172 290 174 243 q 172 408 171 336 q 172 507 174 479 q 164 516 172 514 q 144 517 156 518 q 119 513 132 515 q 96 510 107 511 q 82 508 85 508 q 6 565 29 518 q -1 663 -18 613 q 63 733 15 714 q 80 735 65 735 q 109 733 94 735 q 142 731 124 732 q 171 732 160 731 q 178 737 176 732 q 181 753 181 742 q 179 774 181 764 q 176 799 178 783 q 172 825 174 815 q 257 958 163 919 q 424 963 339 993 q 501 868 501 933 q 498 822 501 847 q 494 780 494 796 q 503 749 494 764 q 522 735 508 736 q 552 739 536 735 q 574 742 568 743 q 621 717 601 736 q 647 670 640 697 q 649 613 653 643 q 628 553 646 583 q 579 504 610 524 q 548 498 565 494 q 515 498 531 501 q 496 479 499 494 q 514 308 478 349 q 581 328 542 282 z "},"u":{"ha":854,"x_min":3,"x_max":839,"o":"m 814 360 q 827 228 817 310 q 835 108 838 146 q 748 10 831 33 q 586 6 665 -14 q 510 53 507 25 q 494 46 504 50 q 451 33 483 42 q 388 17 419 24 q 315 6 357 10 q 235 6 272 3 q 160 23 199 8 q 94 63 122 38 q 47 135 67 89 q 25 242 28 181 q 65 704 3 608 q 133 755 86 736 q 229 772 181 774 q 319 740 278 771 q 367 653 360 708 q 359 481 374 603 q 346 324 344 358 q 372 273 347 288 q 426 265 397 258 q 480 285 456 271 q 506 315 504 300 q 492 490 508 353 q 489 699 476 628 q 528 753 494 731 q 608 781 563 776 q 699 774 654 785 q 778 726 744 764 q 817 632 811 689 q 818 477 822 581 q 814 360 814 374 z "},"ù":{"ha":854,"x_min":3,"x_max":839,"o":"m 814 360 q 827 228 817 310 q 835 108 838 146 q 748 10 831 33 q 586 6 665 -14 q 510 53 507 25 q 494 46 504 50 q 451 33 483 42 q 388 17 419 24 q 315 6 357 10 q 235 6 272 3 q 160 23 199 8 q 94 63 122 38 q 47 135 67 89 q 25 242 28 181 q 65 704 3 608 q 133 755 86 736 q 229 772 181 774 q 319 740 278 771 q 367 653 360 708 q 359 481 374 603 q 346 324 344 358 q 372 273 347 288 q 426 265 397 258 q 480 285 456 271 q 506 315 504 300 q 492 490 508 353 q 489 699 476 628 q 528 753 494 731 q 608 781 563 776 q 699 774 654 785 q 778 726 744 764 q 817 632 811 689 q 818 477 822 581 q 814 360 814 374 z "},"ú":{"ha":854,"x_min":3,"x_max":839,"o":"m 814 360 q 827 228 817 310 q 835 108 838 146 q 748 10 831 33 q 586 6 665 -14 q 510 53 507 25 q 494 46 504 50 q 451 33 483 42 q 388 17 419 24 q 315 6 357 10 q 235 6 272 3 q 160 23 199 8 q 94 63 122 38 q 47 135 67 89 q 25 242 28 181 q 65 704 3 608 q 133 755 86 736 q 229 772 181 774 q 319 740 278 771 q 367 653 360 708 q 359 481 374 603 q 346 324 344 358 q 372 273 347 288 q 426 265 397 258 q 480 285 456 271 q 506 315 504 300 q 492 490 508 353 q 489 699 476 628 q 528 753 494 731 q 608 781 563 776 q 699 774 654 785 q 778 726 744 764 q 817 632 811 689 q 818 477 822 581 q 814 360 814 374 z "},"û":{"ha":854,"x_min":3,"x_max":839,"o":"m 814 360 q 827 228 817 310 q 835 108 838 146 q 748 10 831 33 q 586 6 665 -14 q 510 53 507 25 q 494 46 504 50 q 451 33 483 42 q 388 17 419 24 q 315 6 357 10 q 235 6 272 3 q 160 23 199 8 q 94 63 122 38 q 47 135 67 89 q 25 242 28 181 q 65 704 3 608 q 133 755 86 736 q 229 772 181 774 q 319 740 278 771 q 367 653 360 708 q 359 481 374 603 q 346 324 344 358 q 372 273 347 288 q 426 265 397 258 q 480 285 456 271 q 506 315 504 300 q 492 490 508 353 q 489 699 476 628 q 528 753 494 731 q 608 781 563 776 q 699 774 654 785 q 778 726 744 764 q 817 632 811 689 q 818 477 822 581 q 814 360 814 374 z "},"ü":{"ha":854,"x_min":3,"x_max":839,"o":"m 814 360 q 827 228 817 310 q 835 108 838 146 q 748 10 831 33 q 586 6 665 -14 q 510 53 507 25 q 494 46 504 50 q 451 33 483 42 q 388 17 419 24 q 315 6 357 10 q 235 6 272 3 q 160 23 199 8 q 94 63 122 38 q 47 135 67 89 q 25 242 28 181 q 65 704 3 608 q 133 755 86 736 q 229 772 181 774 q 319 740 278 771 q 367 653 360 708 q 359 481 374 603 q 346 324 344 358 q 372 273 347 288 q 426 265 397 258 q 480 285 456 271 q 506 315 504 300 q 492 490 508 353 q 489 699 476 628 q 528 753 494 731 q 608 781 563 776 q 699 774 654 785 q 778 726 744 764 q 817 632 811 689 q 818 477 822 581 q 814 360 814 374 z "},"v":{"ha":875,"x_min":6,"x_max":871,"o":"m 508 660 q 542 730 506 700 q 633 768 579 760 q 741 770 688 776 q 833 734 794 764 q 869 660 871 704 q 824 363 869 579 q 689 97 790 199 q 436 -4 588 -4 q 251 35 329 -4 q 119 156 174 75 q 33 365 65 238 q 8 549 11 450 q 24 683 6 647 q 87 748 43 725 q 179 772 131 771 q 273 761 228 772 q 347 724 318 750 q 375 667 376 697 q 393 423 371 563 q 439 279 415 283 q 490 426 468 275 q 508 660 511 576 z "},"w":{"ha":1344,"x_min":6,"x_max":1326,"o":"m 1306 625 q 1325 376 1325 547 q 1307 156 1325 206 q 1189 44 1279 85 q 998 0 1099 4 q 804 20 897 -4 q 676 92 711 44 q 594 27 650 51 q 471 -5 538 3 q 332 0 404 -12 q 198 41 260 13 q 91 122 136 69 q 33 244 46 175 q 18 540 6 421 q 74 715 31 658 q 149 761 99 746 q 250 772 199 776 q 344 735 301 768 q 394 646 386 703 q 387 481 401 596 q 372 336 372 367 q 389 292 374 308 q 425 274 404 276 q 467 278 446 272 q 504 297 489 283 q 521 325 519 310 q 519 445 526 375 q 508 549 513 515 q 515 615 503 582 q 569 662 532 642 q 649 689 606 682 q 735 691 693 696 q 807 659 776 686 q 843 586 838 632 q 846 494 849 533 q 838 403 843 454 q 835 326 833 351 q 856 275 838 289 q 895 268 874 261 q 935 290 917 275 q 958 318 954 304 q 960 421 969 353 q 942 548 950 489 q 961 692 935 607 q 1006 747 972 724 q 1085 774 1040 769 q 1174 769 1129 779 q 1255 722 1218 760 q 1306 625 1292 685 z "},"x":{"ha":847,"x_min":8,"x_max":839,"o":"m 688 413 q 714 380 689 406 q 767 323 739 354 q 817 238 796 292 q 833 126 838 185 q 797 50 831 81 q 715 13 763 19 q 620 17 668 7 q 536 62 572 26 q 493 147 500 97 q 468 231 488 194 q 425 267 449 267 q 389 228 410 267 q 365 157 368 190 q 267 22 357 61 q 94 22 178 -18 q 14 157 10 61 q 41 247 17 203 q 93 317 65 290 q 142 365 121 343 q 163 396 164 388 q 144 423 161 407 q 104 460 126 439 q 60 509 82 482 q 26 578 39 536 q 17 667 13 619 q 53 744 19 713 q 134 784 88 776 q 227 783 181 792 q 308 737 274 774 q 349 644 343 700 q 358 608 350 626 q 375 575 365 589 q 396 552 385 561 q 417 543 407 543 q 486 636 464 542 q 595 775 508 736 q 757 774 682 814 q 828 636 832 733 q 802 550 825 592 q 753 485 779 508 q 706 442 726 463 q 688 413 686 422 z "},"y":{"ha":840,"x_min":1,"x_max":817,"o":"m 489 683 q 535 750 499 725 q 619 777 572 775 q 712 767 667 779 q 786 718 757 754 q 813 633 815 682 q 806 -61 806 503 q 744 -262 806 -192 q 570 -342 682 -332 q 300 -322 458 -353 q 202 -270 235 -310 q 172 -188 169 -231 q 199 -108 175 -146 q 263 -58 224 -71 q 340 -60 296 -47 q 422 -88 385 -74 q 476 -94 458 -103 q 501 -60 493 -87 q 507 -9 510 -33 q 494 17 504 15 q 454 13 475 19 q 392 -1 433 6 q 286 -3 351 -7 q 110 74 178 4 q 23 251 43 144 q 21 493 3 358 q 30 547 26 528 q 44 604 33 565 q 71 674 54 643 q 113 729 88 706 q 186 765 140 758 q 272 759 232 771 q 342 719 313 747 q 368 657 371 692 q 343 404 356 474 q 389 261 321 281 q 472 282 432 249 q 494 318 492 299 q 488 405 497 347 q 475 519 479 463 q 489 683 471 575 z "},"ý":{"ha":840,"x_min":1,"x_max":817,"o":"m 489 683 q 535 750 499 725 q 619 777 572 775 q 712 767 667 779 q 786 718 757 754 q 813 633 815 682 q 806 -61 806 503 q 744 -262 806 -192 q 570 -342 682 -332 q 300 -322 458 -353 q 202 -270 235 -310 q 172 -188 169 -231 q 199 -108 175 -146 q 263 -58 224 -71 q 340 -60 296 -47 q 422 -88 385 -74 q 476 -94 458 -103 q 501 -60 493 -87 q 507 -9 510 -33 q 494 17 504 15 q 454 13 475 19 q 392 -1 433 6 q 286 -3 351 -7 q 110 74 178 4 q 23 251 43 144 q 21 493 3 358 q 30 547 26 528 q 44 604 33 565 q 71 674 54 643 q 113 729 88 706 q 186 765 140 758 q 272 759 232 771 q 342 719 313 747 q 368 657 371 692 q 343 404 356 474 q 389 261 321 281 q 472 282 432 249 q 494 318 492 299 q 488 405 497 347 q 475 519 479 463 q 489 683 471 575 z "},"ÿ":{"ha":840,"x_min":1,"x_max":817,"o":"m 489 683 q 535 750 499 725 q 619 777 572 775 q 712 767 667 779 q 786 718 757 754 q 813 633 815 682 q 806 -61 806 503 q 744 -262 806 -192 q 570 -342 682 -332 q 300 -322 458 -353 q 202 -270 235 -310 q 172 -188 169 -231 q 199 -108 175 -146 q 263 -58 224 -71 q 340 -60 296 -47 q 422 -88 385 -74 q 476 -94 458 -103 q 501 -60 493 -87 q 507 -9 510 -33 q 494 17 504 15 q 454 13 475 19 q 392 -1 433 6 q 286 -3 351 -7 q 110 74 178 4 q 23 251 43 144 q 21 493 3 358 q 30 547 26 528 q 44 604 33 565 q 71 674 54 643 q 113 729 88 706 q 186 765 140 758 q 272 759 232 771 q 342 719 313 747 q 368 657 371 692 q 343 404 356 474 q 389 261 321 281 q 472 282 432 249 q 494 318 492 299 q 488 405 497 347 q 475 519 479 463 q 489 683 471 575 z "},"z":{"ha":807,"x_min":-3,"x_max":796,"o":"m 707 288 q 767 240 746 276 q 788 164 789 204 q 761 87 788 124 q 688 38 735 50 q 558 22 642 26 q 406 20 475 18 q 241 27 338 22 q 118 32 144 32 q 57 53 82 33 q 23 101 32 72 q 14 163 14 129 q 22 226 14 196 q 42 275 29 256 q 144 347 57 301 q 310 431 232 392 q 389 488 389 469 q 383 500 389 496 q 365 506 378 504 q 337 506 353 507 q 294 503 321 506 q 240 497 268 500 q 171 492 213 494 q 88 488 129 489 q 24 547 44 486 q 36 692 -1 624 q 146 763 71 753 q 681 747 424 800 q 735 719 711 742 q 772 668 760 697 q 790 606 785 639 q 794 542 796 572 q 783 488 792 511 q 749 445 775 468 q 692 403 724 422 q 624 366 660 385 q 558 334 588 347 q 510 309 529 321 q 493 293 492 297 q 523 277 496 279 q 584 281 550 275 q 653 289 618 286 q 707 288 688 292 z "},"{":{"ha":1032,"x_min":58,"x_max":974,"o":"m 833 111 q 936 38 900 108 q 953 -102 972 -33 q 867 -171 935 -171 q 683 -158 764 -171 q 528 -109 601 -144 q 408 -17 456 -74 q 333 128 360 39 q 307 338 306 218 q 295 357 307 353 q 265 358 283 361 q 226 349 246 354 q 187 339 206 343 q 158 338 168 335 q 78 412 99 356 q 79 527 58 468 q 146 618 100 586 q 177 624 158 626 q 218 619 196 622 q 259 612 240 615 q 290 613 278 608 q 301 631 303 617 q 326 801 300 721 q 402 944 351 881 q 524 1051 453 1007 q 690 1117 596 1096 q 893 1133 785 1138 q 960 1062 951 1129 q 935 927 969 994 q 851 857 900 860 q 681 792 742 851 q 638 632 619 732 q 633 563 644 593 q 606 517 622 532 q 574 490 589 503 q 560 468 560 476 q 573 440 560 457 q 602 404 586 422 q 629 358 618 386 q 636 299 640 329 q 642 208 631 244 q 683 151 654 171 q 748 123 713 132 q 833 111 783 114 z "},"|":{"ha":442,"x_min":17,"x_max":411,"o":"m 383 1038 q 401 731 392 974 q 408 228 410 488 q 383 -78 406 -31 q 315 -141 367 -117 q 209 -166 264 -165 q 108 -133 154 -167 q 53 -33 61 -99 q 47 278 39 71 q 51 547 56 486 q 49 575 50 556 q 39 1018 18 932 q 87 1085 49 1058 q 172 1117 125 1111 q 267 1117 219 1122 q 347 1090 314 1111 q 383 1038 381 1068 z "},"}":{"ha":1032,"x_min":58,"x_max":974,"o":"m 885 614 q 952 523 932 582 q 953 408 972 464 q 872 333 933 351 q 844 335 864 331 q 806 344 825 339 q 767 353 786 350 q 735 353 747 357 q 724 333 724 349 q 698 124 725 214 q 623 -22 671 35 q 502 -113 575 -78 q 348 -162 429 -149 q 164 -175 267 -175 q 78 -106 97 -175 q 94 33 58 -37 q 197 107 131 104 q 283 119 247 110 q 348 148 318 128 q 390 204 378 168 q 394 294 401 240 q 403 353 392 325 q 429 400 414 382 q 458 435 444 418 q 471 464 471 453 q 456 485 471 472 q 425 513 442 499 q 398 558 408 528 q 394 628 388 589 q 350 788 411 728 q 179 853 289 849 q 96 923 131 856 q 70 1058 61 990 q 138 1129 79 1126 q 386 1100 274 1135 q 574 998 499 1065 q 691 835 650 931 q 729 626 732 739 q 742 608 729 613 q 773 608 754 604 q 813 615 792 611 q 853 620 835 618 q 885 614 872 622 z "},"~":{"ha":854,"x_min":1,"x_max":839,"o":"m 825 575 q 835 458 838 547 q 808 319 833 369 q 635 197 757 215 q 408 276 501 176 q 378 319 392 296 q 357 362 364 343 q 344 397 350 381 q 331 419 338 413 q 317 424 325 426 q 283 347 279 408 q 303 294 285 332 q 315 235 321 256 q 281 202 311 217 q 211 185 251 188 q 130 192 171 183 q 58 232 89 201 q 21 310 26 263 q 68 556 1 461 q 267 663 135 651 q 342 665 304 669 q 413 646 381 660 q 474 592 446 632 q 515 490 501 553 q 551 444 525 442 q 578 482 575 446 q 557 560 581 518 q 592 639 532 604 q 732 658 657 676 q 825 575 803 640 z "}," ":{"ha":501,"x_min":0,"x_max":0,"o":""},"­":{"ha":0,"x_min":0,"x_max":0,"o":""},"‘":{"ha":356,"x_min":8,"x_max":346,"o":"m 231 833 q 278 826 254 833 q 324 797 303 819 q 342 743 344 775 q 291 656 338 689 q 175 622 244 622 q 69 657 108 622 q 19 743 29 692 q 24 843 10 793 q 65 928 38 893 q 105 956 82 947 q 151 963 128 965 q 196 953 175 961 q 231 934 217 946 q 249 908 246 922 q 229 844 253 885 q 231 833 222 833 z "},"’":{"ha":354,"x_min":8,"x_max":344,"o":"m 335 843 q 330 743 344 793 q 288 658 315 693 q 249 630 272 639 q 202 623 225 621 q 158 632 179 625 q 122 651 136 639 q 106 676 108 664 q 125 740 100 701 q 122 753 132 753 q 75 760 100 753 q 29 788 50 767 q 11 843 8 810 q 63 930 17 897 q 179 963 108 963 q 258 946 224 963 q 310 903 292 929 q 335 843 328 876 z "},"‚":{"ha":354,"x_min":10,"x_max":346,"o":"m 336 96 q 331 -4 346 46 q 289 -89 317 -54 q 239 -120 269 -112 q 181 -122 208 -128 q 131 -101 153 -115 q 107 -71 110 -86 q 126 -7 101 -46 q 124 6 133 6 q 76 13 101 6 q 31 41 51 19 q 13 96 10 63 q 64 182 18 149 q 181 215 110 215 q 286 181 246 215 q 336 96 326 147 z "},"“":{"ha":710,"x_min":8,"x_max":700,"o":"m 585 829 q 633 822 608 829 q 679 793 658 815 q 697 739 700 771 q 646 651 692 685 q 529 618 600 618 q 424 652 464 618 q 374 739 383 686 q 378 838 364 789 q 421 922 393 888 q 471 955 440 947 q 529 956 501 963 q 578 935 557 950 q 603 904 600 921 q 583 840 608 881 q 585 829 576 828 m 231 829 q 265 825 247 829 q 303 811 283 821 q 333 783 322 801 q 342 739 344 764 q 317 676 339 703 q 258 633 294 649 q 175 618 221 618 q 69 652 108 618 q 19 739 29 686 q 24 838 10 789 q 65 922 38 888 q 116 955 85 947 q 175 956 147 963 q 224 935 203 950 q 249 904 244 921 q 229 840 253 881 q 231 829 222 828 z "},"”":{"ha":708,"x_min":8,"x_max":700,"o":"m 179 963 q 285 928 244 963 q 335 843 325 894 q 330 743 344 793 q 288 658 315 693 q 249 630 272 639 q 202 623 225 621 q 158 632 179 625 q 122 651 136 639 q 106 676 108 664 q 125 740 100 701 q 122 753 132 753 q 75 760 100 753 q 29 788 50 767 q 11 843 8 810 q 63 930 17 897 q 179 963 108 963 m 689 843 q 685 743 699 793 q 643 658 671 693 q 592 627 624 635 q 533 626 561 619 q 485 647 506 632 q 460 676 464 661 q 479 740 456 701 q 478 753 486 753 q 430 760 454 753 q 385 788 406 767 q 367 843 364 810 q 417 930 371 897 q 533 963 464 963 q 640 928 600 963 q 689 843 679 894 z "},"„":{"ha":708,"x_min":10,"x_max":701,"o":"m 181 215 q 286 181 246 215 q 336 96 326 147 q 331 -4 346 46 q 289 -89 317 -54 q 239 -121 269 -112 q 181 -122 208 -129 q 131 -101 153 -115 q 107 -71 110 -86 q 126 -7 101 -46 q 124 6 133 6 q 76 13 101 6 q 31 41 51 19 q 13 96 10 63 q 64 182 18 149 q 181 215 110 215 m 690 96 q 686 -4 700 46 q 644 -89 672 -54 q 594 -120 625 -112 q 535 -122 563 -128 q 486 -101 507 -115 q 461 -71 465 -86 q 481 -7 457 -46 q 479 6 488 6 q 431 13 456 6 q 386 41 407 19 q 368 96 365 63 q 419 182 372 149 q 535 215 465 215 q 641 181 601 215 q 690 96 681 147 z "}}}
